<svg width="1440" height="657" viewBox="0 0 1440 657" fill="none" xmlns="http://www.w3.org/2000/svg">
<rect width="1440" height="656.39" fill="#043873"/>
<g opacity="0.3">
<path d="M486.505 585.345C479.401 585.345 472.487 584.992 465.843 584.286C451.908 582.804 439.033 579.763 427.577 575.245C415.263 570.391 404.463 563.776 395.474 555.586C377.409 539.123 368.371 519.408 359.629 500.341C357.912 496.597 356.136 492.726 354.334 488.97C342.034 463.369 326.441 440.944 306.669 420.413C267.227 379.458 211.758 344.505 146.257 319.335C70.5048 290.227 -10.9409 275.727 -83.0791 278.507C-125.478 280.142 -181.499 295.688 -206.537 322.237C-221.395 337.994 -222.593 355.479 -209.999 372.801L-210.249 372.874C-216.853 363.79 -219.73 354.683 -218.798 345.806C-217.944 337.662 -213.898 329.702 -206.773 322.146C-195.44 310.128 -176.751 299.477 -152.725 291.342C-130.524 283.827 -105.797 279.206 -83.0956 278.331C-45.3434 276.877 -5.19209 280.104 36.2425 287.923C73.8024 295.011 110.865 305.529 146.4 319.183C211.94 344.368 267.441 379.339 306.906 420.319C326.689 440.863 342.289 463.301 354.598 488.916C356.403 492.672 358.178 496.545 359.893 500.289C368.626 519.342 377.659 539.043 395.7 555.481C413.147 571.381 436.763 581.012 465.889 584.108C506.225 588.396 555.206 579.428 596.909 560.117C657.009 532.29 698.718 491.787 739.056 452.618C746.127 445.752 753.436 438.653 760.675 431.798C779.466 413.997 804.915 390.93 835.16 370.38C866.075 349.375 897.49 333.943 931.203 323.199C951.838 316.623 973.706 312.192 996.202 310.031C1016.98 308.033 1038.97 307.91 1061.57 309.659C1100.33 312.663 1142.09 321.146 1189.23 335.592C1282.06 364.039 1374.79 398.568 1464.84 438.221C1550.44 475.91 1634.38 518.557 1714.35 564.975L1714.16 565.104C1548.4 468.882 1371.75 391.716 1189.11 335.749C1085.93 304.129 1004.02 300.19 931.327 323.354C857.375 346.919 805.715 389.447 760.903 431.894C753.667 438.747 746.358 445.847 739.287 452.712C698.938 491.895 657.215 532.411 597.074 560.257C577.64 569.256 555.777 576.275 533.851 580.554C522.268 582.815 510.754 584.293 499.624 584.948C495.189 585.215 490.811 585.345 486.505 585.345Z" fill="#FFE492"/>
<path d="M493.451 575.583C475.336 575.583 458.556 573.395 443.56 569.078C426.839 564.264 412.409 556.804 400.669 546.907C399.63 546.03 398.6 545.124 397.605 544.211C379.732 527.819 370.293 508.361 361.167 489.541C359.32 485.738 357.413 481.804 355.478 477.987C343.956 455.259 330.081 435.226 313.057 416.749C310.96 414.474 308.789 412.194 306.599 409.974C266.577 369.371 210.658 334.861 144.887 310.175C68.5879 281.564 -13.0887 267.663 -85.0977 271.036C-127.189 273.028 -182.952 288.829 -208.096 315.174C-223.153 330.95 -224.856 348.47 -213.029 365.843L-213.282 365.913C-219.481 356.807 -222.029 347.683 -220.85 338.795C-219.767 330.633 -215.557 322.655 -208.333 315.083C-196.884 303.086 -178.25 292.423 -154.449 284.246C-132.452 276.689 -107.832 271.936 -85.1224 270.862C-47.4169 269.096 -7.22165 272.014 34.3448 279.533C71.9954 286.345 109.234 296.604 145.024 310.025C210.833 334.725 266.783 369.256 306.83 409.881C309.02 412.104 311.194 414.385 313.291 416.662C330.326 435.151 344.208 455.194 355.736 477.935C357.674 481.752 359.581 485.686 361.428 489.491C370.551 508.298 379.982 527.743 397.831 544.111C398.823 545.021 399.853 545.927 400.889 546.802C425.149 567.26 458.482 575.583 493.536 575.583C493.728 575.583 493.918 575.583 494.11 575.583C493.89 575.581 493.67 575.583 493.451 575.583ZM500.928 575.461C533.517 574.399 567.144 566.456 595.993 554.641C658.222 529.048 702.946 489.521 746.199 451.295C747.98 449.719 749.761 448.147 751.542 446.575C755.452 443.124 760.088 439.038 764.82 434.92C786.048 416.449 811.74 394.958 841.328 375.614C872.809 355.031 904.26 339.757 937.475 328.918C957.885 322.265 979.454 317.578 1001.58 314.988C1022.09 312.587 1043.75 311.909 1065.98 312.971C1104.37 314.806 1145.65 321.764 1192.18 334.244C1237.54 346.393 1274.84 357.829 1309.53 370.233C1358.69 387.824 1405.51 408.091 1444.84 425.596C1536.25 466.41 1625.95 512.755 1711.43 563.343L1711.25 563.471C1625.77 512.889 1536.08 466.548 1444.68 425.739C1405.36 408.236 1358.55 387.972 1309.4 370.387C1274.71 357.985 1237.43 346.553 1192.08 334.408C1090.72 307.221 1009.85 305.525 937.602 329.074C862.614 353.543 809.211 396.593 765.043 435.024C760.308 439.143 755.675 443.227 751.764 446.68C749.983 448.25 748.203 449.824 746.422 451.4C703.154 489.637 658.414 529.179 596.141 554.79C580.7 561.114 564.27 566.137 547.303 569.719C531.511 573.05 515.943 574.976 500.928 575.461Z" fill="#FFE492"/>
<path d="M501.109 566.044C498.93 566.044 496.764 566.014 494.615 565.953C476.517 565.446 459.768 562.812 444.835 558.122C428.504 552.992 414.354 545.394 402.782 535.538C401.754 534.659 400.729 533.751 399.74 532.838C382.068 516.527 372.235 497.328 362.73 478.763C360.749 474.894 358.699 470.892 356.621 467.008C344.53 444.356 330.29 424.484 313.081 406.256C310.952 404.003 308.748 401.742 306.525 399.539C265.923 359.29 209.553 325.223 143.512 301.021C66.6696 272.907 -15.2378 259.604 -87.1205 263.569C-127.593 265.837 -183.194 280.736 -209.63 308.087C-224.903 323.889 -227.126 341.457 -216.06 358.89L-216.316 358.955C-222.114 349.822 -224.326 340.676 -222.897 331.773C-221.584 323.584 -217.198 315.586 -209.863 307.997C-198.294 296.028 -179.72 285.36 -156.148 277.146C-134.356 269.551 -109.849 264.669 -87.1452 263.397C-49.4836 261.321 -9.24442 263.929 32.4512 271.148C70.1953 277.684 107.607 287.684 143.65 300.871C209.729 325.088 266.129 359.174 306.756 399.446C308.979 401.651 311.185 403.912 313.315 406.169C330.531 424.408 344.78 444.292 356.877 466.956C358.954 470.841 361.004 474.843 362.985 478.713C372.488 497.267 382.312 516.452 399.963 532.744C400.952 533.657 401.972 534.563 402.999 535.438C450.021 575.489 533.352 571.189 595.075 549.163C659.9 525.826 708.076 487.039 754.666 449.53L755.144 449.144C759.656 445.508 764.322 441.751 768.966 438.04C817.972 398.892 871.836 358.66 943.751 334.633C963.941 327.902 985.213 322.959 1006.97 319.941C1027.21 317.135 1048.55 315.903 1070.39 316.279C1108.48 316.935 1149.28 322.369 1195.13 332.894C1243.32 343.915 1279.59 354.045 1312.72 365.742C1359.92 382.442 1405.64 403.544 1445.98 422.163C1535.8 463.84 1624.13 510.789 1708.52 561.703L1708.33 561.829C1623.95 510.92 1535.63 463.976 1445.82 422.302C1405.49 403.687 1359.77 382.588 1312.58 365.894C1279.47 354.2 1243.21 344.073 1195.04 333.056C1095.65 310.243 1015.84 310.792 943.878 334.785C872.009 358.796 818.167 399.011 769.181 438.144C764.537 441.855 759.87 445.615 755.358 449.249L754.88 449.634C731.662 468.326 707.655 487.654 681.731 504.918C652.596 524.32 624.294 538.841 595.207 549.311C564.775 560.17 531.626 566.044 501.109 566.044Z" fill="#FFE492"/>
<path d="M1705.42 560.185C1622.13 508.948 1535.18 461.401 1446.97 418.865C1443.23 417.076 1439.49 415.279 1435.73 413.477C1397.53 395.137 1358.02 376.173 1315.77 361.4C1274.78 347.107 1233.24 338.368 1198.01 331.704C1100.77 313.197 1022.01 315.991 950.162 340.494C876.403 365.722 819.249 407.608 773.327 441.265C770.571 443.286 767.82 445.309 765.064 447.335C763.03 448.83 760.994 450.326 758.958 451.819C732.811 471.003 709.026 488.154 682.747 503.804C652.725 521.682 623.788 534.775 594.278 543.834C566.621 552.324 537.078 556.816 509.597 556.817C504.59 556.817 499.658 556.669 494.81 556.368C477.113 555.268 460.729 552.177 446.115 547.182C430.169 541.732 416.299 533.989 404.887 524.169C403.867 523.289 402.851 522.379 401.867 521.464C384.403 505.239 374.189 486.31 364.312 468.005C362.185 464.062 359.984 459.984 357.758 456.025C345.09 433.445 330.482 413.731 313.103 395.758C310.94 393.521 308.701 391.282 306.447 389.098C265.263 349.202 208.445 315.578 142.138 291.859C64.7512 264.242 -17.3843 251.54 -89.1405 256.093C-138.195 259.267 -188.358 277.719 -211.128 300.961C-226.64 316.796 -229.391 334.42 -219.089 351.927L-219.347 351.988C-224.741 342.821 -226.621 333.648 -224.934 324.722C-223.381 316.504 -218.814 308.479 -211.361 300.869C-199.671 288.935 -181.158 278.268 -157.822 270.023C-136.239 262.398 -111.858 257.388 -89.168 255.921C-51.5504 253.533 -11.27 255.832 30.5548 262.751C68.3895 269.012 105.98 278.754 142.275 291.706C208.624 315.439 265.472 349.082 306.681 389.002C308.937 391.187 311.177 393.429 313.34 395.665C330.729 413.649 345.343 433.373 358.019 455.964C360.245 459.924 362.447 464.001 364.574 467.946C374.444 486.24 384.653 505.157 402.095 521.363C403.079 522.276 404.093 523.185 405.109 524.063C454.197 566.303 537.63 561.027 594.159 543.675C661.604 522.972 713.214 485.111 758.752 451.704C760.788 450.209 762.822 448.713 764.858 447.22C767.611 445.194 770.365 443.171 773.121 441.15C799.335 421.939 825.221 403.27 853.679 386.067C886.405 366.282 917.925 351.325 950.036 340.341C970.014 333.527 990.984 328.328 1012.37 324.889C1032.35 321.673 1053.36 319.889 1074.82 319.582C1112.66 319.041 1152.98 322.953 1198.1 331.537C1233.34 338.204 1274.9 346.947 1315.9 361.248C1358.17 376.027 1397.69 394.996 1435.9 413.339C1439.66 415.141 1443.4 416.939 1447.14 418.727C1535.36 461.266 1622.32 508.819 1705.61 560.061L1705.42 560.185Z" fill="#FFE492"/>
<path d="M1702.51 558.543C1618.75 505.999 1533.16 457.847 1448.12 415.427C1443.03 412.89 1437.82 410.273 1432.79 407.744C1396.73 389.631 1359.45 370.901 1318.95 356.906C1278.52 342.982 1236.63 335.668 1200.98 330.352C1106.11 316.064 1028.4 321.102 956.444 346.204C887.81 370.235 834.039 406.371 782.039 441.316L776.328 445.152C771.819 448.184 767.155 451.316 762.558 454.389C710.505 489.133 658.397 521.698 593.349 538.354C577.564 542.396 561.356 545.197 545.171 546.684C527.789 548.279 510.906 548.301 494.986 546.75C477.696 545.064 461.683 541.524 447.393 536.227C431.842 530.463 418.251 522.58 407 512.798C405.986 511.913 404.978 511.001 404.002 510.088C386.753 493.958 376.17 475.308 365.937 457.271C363.653 453.247 361.29 449.085 358.905 445.043C345.648 422.532 330.677 402.977 313.134 385.261C310.941 383.048 308.668 380.825 306.379 378.659C264.615 339.117 207.349 305.936 140.77 282.7C62.8359 255.583 -19.5304 243.479 -91.163 248.623C-139.77 252.187 -189.704 270.767 -212.59 293.808C-228.36 309.683 -231.655 327.375 -222.12 344.97L-222.381 345.028C-227.371 335.821 -228.913 326.613 -226.964 317.661C-225.167 309.408 -220.41 301.352 -212.826 293.718C-201.009 281.823 -182.562 271.167 -159.473 262.898C-138.105 255.244 -113.856 250.115 -91.1959 248.452C-53.6223 245.754 -13.3006 247.743 28.6561 254.362C66.5842 260.348 104.347 269.83 140.899 282.548C207.516 305.796 264.815 338.999 306.604 378.563C308.893 380.731 311.169 382.955 313.362 385.169C330.916 402.894 345.895 422.459 359.157 444.982C361.543 449.024 363.906 453.188 366.19 457.212C376.418 475.238 386.995 493.88 404.225 509.99C405.198 510.9 406.206 511.81 407.217 512.695C455.124 554.348 534.723 553.178 593.242 538.194C658.238 521.551 710.324 488.999 762.355 454.27C766.952 451.197 771.615 448.065 776.125 445.034L781.835 441.198C807.362 424.045 833.754 406.306 862.418 389.805C894.883 371.117 925.595 356.805 956.307 346.051C976.082 339.152 996.755 333.697 1017.75 329.838C1037.49 326.209 1058.17 323.87 1079.23 322.885C1116.9 321.123 1156.75 323.511 1201.05 330.181C1236.71 335.501 1278.62 342.816 1319.08 356.753C1359.6 370.753 1396.89 389.488 1432.96 407.607C1437.99 410.136 1443.2 412.75 1448.28 415.29C1533.34 457.712 1618.93 505.868 1702.7 558.418L1702.51 558.543Z" fill="#FFE492"/>
<path d="M1699.59 556.902C1616.56 503.774 1532.33 455.019 1449.26 411.993C1443.02 408.76 1436.62 405.398 1430.43 402.147C1396.32 384.229 1361.05 365.701 1322.14 352.418C1281.89 338.732 1239.81 332.901 1203.96 329.004C1111.71 318.823 1035.05 326.105 962.724 351.919C899.602 374.542 847.777 406.602 797.656 437.607C792.382 440.869 786.927 444.242 781.613 447.51C775.372 451.348 770.604 454.264 766.155 456.963C742.327 471.405 713.957 488.035 684.185 501.867C652.635 516.524 622.618 526.668 592.417 532.88C576.536 536.147 560.397 538.207 544.445 539.002C527.317 539.856 510.732 539.228 495.157 537.135C478.281 534.868 462.642 530.878 448.668 525.278C433.516 519.205 420.207 511.18 409.111 501.43C408.111 500.546 407.107 499.633 406.135 498.716C389.113 482.694 378.176 464.332 367.596 446.574C365.143 442.456 362.606 438.197 360.048 434.061C346.195 411.613 330.858 392.219 313.158 374.766C310.932 372.572 308.627 370.371 306.305 368.221C263.961 329.034 206.244 296.295 139.396 273.542C60.9205 246.923 -21.6766 235.421 -93.1828 241.152C-133.87 244.484 -187.011 259.837 -214.013 286.62C-230.067 302.544 -233.92 320.315 -225.151 338.012L-225.412 338.064C-229.998 328.811 -231.196 319.562 -228.976 310.575C-226.926 302.28 -221.971 294.189 -214.244 286.526C-202.301 274.68 -183.922 264.041 -161.089 255.755C-139.935 248.079 -115.832 242.832 -93.2157 240.979C-55.6861 237.971 -15.3204 239.649 26.7627 245.97C64.7815 251.68 102.721 260.903 139.525 273.389C206.412 296.154 264.161 328.912 306.53 368.122C308.852 370.271 311.16 372.476 313.386 374.672C331.095 392.134 346.439 411.538 360.3 433.997C362.862 438.135 365.398 442.393 367.852 446.512C378.424 464.26 389.358 482.613 406.36 498.617C407.333 499.532 408.333 500.443 409.333 501.325C449.188 536.349 517.6 548.083 592.332 532.711C660.01 518.792 715.218 487.594 765.966 456.834C770.415 454.135 775.18 451.219 781.42 447.381C786.735 444.113 792.19 440.741 797.463 437.478C822.138 422.214 847.65 406.431 874.864 391.653C905.636 374.939 934.334 361.891 962.592 351.764C982.177 344.775 1002.55 339.063 1023.14 334.789C1042.65 330.74 1063.01 327.848 1083.65 326.191C1121.23 323.175 1160.6 324.038 1204 328.828C1239.88 332.729 1281.99 338.561 1322.27 352.259C1361.2 365.551 1396.48 384.084 1430.6 402.008C1436.79 405.258 1443.19 408.621 1449.44 411.854C1532.51 454.885 1616.74 503.643 1699.79 556.775L1699.59 556.902Z" fill="#FFE492"/>
<path d="M1696.68 555.261C1614.36 501.546 1531.5 452.186 1450.4 408.557C1443.5 404.846 1436.42 400.95 1429.57 397.184C1396.92 379.241 1363.17 360.689 1325.32 347.925C1285.04 334.403 1242.87 330.089 1206.93 327.652C1118.86 321.522 1041.03 331.328 969.002 357.63C911.648 378.668 862.483 406.812 814.937 434.031C805.333 439.528 795.404 445.214 785.75 450.633C779.845 453.95 774.613 456.862 769.749 459.536C747.13 471.956 717.042 487.882 684.89 500.897C652.584 513.973 622.029 522.644 591.479 527.405C558.16 532.597 524.906 532.635 495.315 527.518C478.863 524.672 463.595 520.234 449.934 514.327C435.186 507.949 422.16 499.785 411.215 490.064C410.223 489.179 409.228 488.264 408.261 487.347C391.481 471.447 380.203 453.387 369.299 435.922C366.661 431.697 363.935 427.329 361.185 423.085C346.724 400.696 331.022 381.458 313.179 364.276C310.921 362.101 308.582 359.918 306.227 357.789C263.303 318.955 205.138 286.657 138.021 264.39C59.0043 238.271 -23.8236 227.369 -95.2061 233.687C-143.582 238.062 -191.884 256.433 -215.396 279.399C-231.758 295.381 -236.179 313.245 -228.183 331.06L-228.446 331.107C-232.626 321.797 -233.478 312.5 -230.98 303.475C-228.672 295.133 -223.505 287 -215.627 279.303C-203.558 267.514 -185.25 256.899 -162.684 248.606C-141.752 240.914 -117.8 235.552 -95.2446 233.513C-57.7589 230.194 -17.3493 231.564 24.863 237.583C62.9752 243.018 101.09 251.984 138.147 264.233C205.303 286.514 263.501 318.829 306.452 357.687C308.807 359.817 311.146 362.001 313.407 364.178C331.259 381.371 346.969 400.617 361.437 423.017C364.188 427.261 366.914 431.631 369.552 435.856C380.451 453.312 391.723 471.364 408.486 487.248C409.453 488.165 410.445 489.076 411.438 489.962C450.608 524.759 517.887 538.692 591.413 527.236C658.443 516.79 716.651 488.461 769.567 459.405C774.428 456.731 779.663 453.821 785.566 450.504C795.217 445.085 805.149 439.401 814.75 433.903C862.307 406.68 911.48 378.528 968.862 357.482C988.274 350.393 1008.35 344.427 1028.53 339.745C1047.83 335.269 1067.86 331.823 1088.06 329.503C1125.63 325.189 1164.52 324.529 1206.95 327.481C1242.92 329.92 1285.13 334.235 1325.44 347.773C1363.32 360.546 1397.09 379.105 1429.75 397.055C1436.6 400.821 1443.68 404.715 1450.58 408.426C1531.69 452.058 1614.55 501.422 1696.87 555.141L1696.68 555.261Z" fill="#FFE492"/>
<path d="M1693.76 553.618C1612.18 499.31 1530.69 449.349 1451.55 405.12C1444.28 401.056 1436.8 396.752 1429.56 392.59C1398.11 374.496 1365.59 355.785 1328.5 343.432C1288.06 330.025 1245.85 327.248 1209.89 326.3C1125.16 323.902 1048.41 336.017 975.282 363.341C923.995 382.594 878.277 406.961 834.061 430.524C818.859 438.628 804.498 446.281 789.892 453.753C783.951 456.795 778.54 459.528 773.346 462.106C739.834 478.725 711.953 490.741 685.599 499.92C652.538 511.436 621.447 518.634 590.548 521.925C578.561 523.201 566.618 523.837 554.893 523.837C534.107 523.837 513.994 521.843 495.478 517.894C461.969 510.746 434.329 497.556 413.326 478.692C412.337 477.798 411.35 476.883 410.394 475.969C393.87 460.208 382.276 442.467 371.064 425.309C368.223 420.962 365.288 416.469 362.328 412.099C347.25 389.763 331.179 370.686 313.207 353.777C310.915 351.621 308.544 349.458 306.156 347.347C262.652 308.867 204.037 277.012 136.65 255.228C57.0921 229.611 -25.964 219.306 -97.2228 226.212C-145.8 231.018 -192.708 249.04 -216.723 272.128C-233.417 288.176 -238.424 306.146 -231.208 324.097L-231.474 324.141C-235.242 314.767 -235.742 305.414 -232.958 296.342C-230.381 287.944 -224.997 279.766 -216.951 272.032C-204.756 260.307 -186.528 249.727 -164.236 241.434C-143.53 233.73 -119.746 228.264 -97.2641 226.04C-59.8223 222.411 -19.3688 223.47 22.9699 229.189C61.1756 234.35 99.4637 243.058 136.776 255.071C204.202 276.869 262.85 308.741 306.381 347.244C308.769 349.357 311.141 351.52 313.435 353.677C331.418 370.595 347.497 389.682 362.581 412.028C365.541 416.397 368.478 420.893 371.317 425.24C382.523 442.389 394.112 460.122 410.622 475.87C411.578 476.782 412.562 477.697 413.551 478.589C452.771 513.819 517.267 529.551 590.502 521.751C660.216 514.326 721.964 487.363 773.176 461.966C778.367 459.388 783.778 456.657 789.719 453.616C804.322 446.143 818.683 438.492 833.885 430.388C878.106 406.82 923.836 382.449 975.141 363.189C994.408 355.99 1014.18 349.768 1033.92 344.692C1053.03 339.777 1072.74 335.777 1092.48 332.805C1130.13 327.139 1168.54 324.953 1209.9 326.124C1245.89 327.072 1288.14 329.852 1328.63 343.275C1365.74 355.637 1398.28 374.356 1429.75 392.457C1436.98 396.62 1444.46 400.923 1451.73 404.986C1530.87 449.218 1612.37 499.184 1693.96 553.496L1693.76 553.618Z" fill="#FFE492"/>
<path d="M1690.85 551.977C1608.86 496.298 1530.96 447.137 1452.7 401.683C1445.23 397.347 1437.88 392.918 1430.09 388.229C1399.66 369.9 1368.2 350.948 1331.68 338.941C1290.73 325.539 1246.67 324.423 1212.86 324.95C1131.98 326.044 1056.32 340.471 981.561 369.055C936.705 386.288 895.29 406.982 855.237 426.997C834.188 437.516 814.306 447.449 794.031 456.877C788.013 459.678 782.42 462.23 776.941 464.679C742.973 479.836 714.173 490.723 686.303 498.943C652.475 508.919 620.848 514.645 589.614 516.447C573.566 517.373 557.627 517.199 542.241 515.93C525.951 514.586 510.271 512.008 495.637 508.269C463.202 499.981 436.22 486.207 415.436 467.325C414.455 466.429 413.477 465.512 412.526 464.599C396.28 448.999 384.395 431.597 372.9 414.768C369.833 410.278 366.662 405.635 363.471 401.12C347.761 378.833 331.328 359.914 313.232 343.284C310.905 341.148 308.5 339.004 306.085 336.912C262.001 298.786 202.938 267.373 135.282 246.072C72.8357 226.493 8.43863 216.278 -50.6135 216.278C-67.3077 216.278 -83.5622 217.093 -99.2397 218.744C-147.231 223.896 -193.846 241.983 -218.001 264.823C-235.049 280.946 -240.664 299.038 -234.236 317.143L-234.505 317.181C-237.861 307.734 -238.001 298.317 -234.923 289.192C-232.071 280.734 -226.454 272.501 -218.232 264.726C-205.909 253.074 -187.767 242.538 -165.761 234.253C-144.989 226.432 -122.001 221.01 -99.2891 218.573C-61.8914 214.634 -21.3938 215.385 21.074 220.802C59.3704 225.686 97.8371 234.135 135.403 245.914C203.097 267.227 262.196 298.657 306.307 336.806C308.725 338.897 311.133 341.043 313.46 343.182C331.564 359.82 348.006 378.747 363.724 401.046C366.915 405.56 370.089 410.203 373.155 414.695C384.645 431.517 396.525 448.912 412.757 464.499C413.708 465.411 414.686 466.328 415.664 467.222C454.53 502.53 517.921 520.406 589.592 516.271C662.115 512.087 727.727 486.423 776.787 464.532C782.266 462.083 787.856 459.532 793.874 456.732C814.146 447.308 834.025 437.373 855.073 426.856C895.13 406.839 936.551 386.139 981.423 368.901C1019.92 354.185 1057.69 343.46 1096.9 336.112C1134.72 329.025 1172.65 325.316 1212.86 324.772C1235.8 324.415 1254.52 325.035 1271.77 326.722C1294.04 328.901 1313.68 332.846 1331.81 338.782C1368.36 350.8 1399.84 369.762 1430.29 388.1C1438.07 392.789 1445.42 397.216 1452.89 401.553C1531.16 447.008 1609.06 496.173 1691.06 551.855L1690.85 551.977Z" fill="#FFE492"/>
<path d="M1687.94 550.334C1606.7 494.045 1530.13 444.299 1453.84 398.245C1446.29 393.689 1438.85 388.995 1430.97 384.026C1401.46 365.407 1370.93 346.152 1334.87 334.446C1293.58 321.107 1249.56 321.641 1215.84 323.594C1139.51 327.863 1064.93 344.601 987.84 374.762C949.857 389.694 913.693 406.782 878.719 423.309C851.072 436.373 824.96 448.714 798.172 459.993C792.118 462.544 786.183 464.984 780.536 467.243C746.501 480.846 715.908 490.891 687.007 497.953C652.401 506.41 620.238 510.667 588.68 510.963C572.623 511.113 556.748 510.193 541.505 508.225C525.525 506.161 510.147 502.935 495.797 498.633C464.475 489.243 438.146 474.883 417.544 455.949C416.577 455.055 415.604 454.136 414.656 453.217C398.715 437.808 386.572 420.773 374.827 404.3C371.504 399.64 368.066 394.818 364.612 390.132C348.259 367.886 331.46 349.128 313.257 332.782C310.897 330.664 308.459 328.539 306.011 326.467C261.347 288.694 201.833 257.725 133.908 236.907C53.2701 212.295 -30.2504 203.19 -101.262 211.267C-148.632 216.749 -194.936 234.883 -219.226 257.463C-236.659 273.672 -242.897 291.9 -237.269 310.18L-237.539 310.213C-240.474 300.684 -240.248 291.194 -236.865 282.007C-233.725 273.478 -227.868 265.187 -219.454 257.364C-207.011 245.796 -188.959 235.312 -167.25 227.045C-146.717 219.226 -123.917 213.711 -101.311 211.095C-63.9548 206.847 -23.416 207.286 19.1782 212.404C57.568 217.016 96.2079 225.206 134.026 236.748C201.993 257.577 261.54 288.565 306.228 326.361C308.679 328.433 311.119 330.559 313.48 332.679C331.694 349.033 348.498 367.8 364.859 390.055C368.316 394.742 371.752 399.563 375.077 404.225C386.816 420.691 398.954 437.719 414.884 453.118C415.832 454.035 416.805 454.953 417.77 455.846C457.044 491.94 517.74 511.454 588.674 510.785C646.232 510.245 707.15 496.36 780.387 467.092C786.031 464.833 791.964 462.394 798.018 459.843C824.798 448.565 850.909 436.229 878.552 423.165C913.531 406.636 949.701 389.544 987.695 374.608C1026.56 359.401 1063.73 347.89 1101.31 339.414C1139.39 330.828 1176.84 325.594 1215.81 323.415C1249.58 321.458 1293.64 320.926 1334.99 334.286C1371.1 346.006 1401.64 365.269 1431.17 383.897C1439.05 388.866 1446.49 393.558 1454.03 398.113C1530.32 444.168 1606.9 493.918 1688.14 550.21L1687.94 550.334Z" fill="#FFE492"/>
<path d="M1685.02 548.69C1604.54 491.79 1529.3 441.454 1454.99 394.808C1447.45 390.073 1440 385.152 1432.11 379.942C1403.43 360.991 1373.77 341.394 1338.05 329.953C1296.37 316.663 1252.43 318.85 1218.81 322.241C1146.99 329.343 1075.6 347.847 994.121 380.472C963.564 392.764 933.701 406.248 904.822 419.287C869.746 435.124 836.616 450.084 802.313 463.113C796.132 465.462 790.015 467.718 784.132 469.813C749.487 482.143 717.949 491.025 687.712 496.965C670.776 500.293 654.057 502.703 638.02 504.131C620.913 505.652 603.999 506.107 587.747 505.483C554.774 504.216 523.892 498.67 495.961 489C465.796 478.556 440.124 463.611 419.659 444.578C418.698 443.677 417.733 442.757 416.791 441.843C401.19 426.66 388.829 410.03 376.878 393.949C373.259 389.081 369.519 384.047 365.757 379.149C348.744 356.94 331.58 338.341 313.284 322.286C310.89 320.186 308.417 318.08 305.938 316.029C260.695 278.608 200.733 248.081 132.538 227.749C51.362 203.642 -32.3866 195.136 -103.28 203.797C-179.188 213.215 -253.157 253.905 -240.296 303.223L-240.568 303.251C-243.786 290.914 -241.901 278.76 -234.968 267.124C-228.636 256.497 -218.246 246.495 -204.085 237.4C-190.92 228.943 -175.124 221.642 -157.141 215.698C-140.037 210.046 -121.431 205.87 -103.335 203.625C-66.0223 199.067 -25.4396 199.197 17.2839 204.015C55.7671 208.353 94.5828 216.286 132.654 227.593C200.887 247.939 260.885 278.483 306.155 315.924C308.637 317.977 311.11 320.083 313.506 322.185C331.811 338.247 348.983 356.857 366.004 379.074C369.766 383.972 373.507 389.006 377.126 393.876C389.074 409.952 401.429 426.575 417.021 441.749C417.961 442.662 418.923 443.583 419.885 444.482C459.217 481.061 518.838 502.661 587.764 505.311C646.115 507.551 710.304 495.892 783.997 469.663C789.878 467.568 795.992 465.314 802.172 462.965C836.468 449.939 869.592 434.981 904.662 419.146C933.544 406.105 963.41 392.619 993.973 380.326C1075.48 347.687 1146.91 329.176 1218.76 322.068C1241.36 319.79 1260.06 319.061 1277.64 319.778C1300.1 320.693 1319.9 323.97 1338.17 329.797C1373.93 341.25 1403.61 360.858 1432.31 379.82C1440.19 385.029 1447.64 389.949 1455.18 394.683C1529.5 441.332 1604.74 491.67 1685.22 548.574L1685.02 548.69Z" fill="#FFE492"/>
<path d="M1682.11 547.051C1602.4 489.531 1528.48 438.609 1456.14 391.374C1448.65 386.487 1441.25 381.368 1433.42 375.945C1405.51 356.631 1376.66 336.658 1341.24 325.463C1298.65 312.061 1252.66 316.434 1221.78 320.889C1137.95 332.832 1062.83 360.598 1000.4 386.187C977.967 395.421 955.587 405.203 933.941 414.662C890.519 433.638 849.508 451.561 806.457 466.237C800.126 468.397 793.828 470.466 787.732 472.388C752.412 483.507 719.928 491.225 688.425 495.98C652.711 501.371 618.529 502.727 586.819 500.008C554.245 497.214 523.73 490.27 496.129 479.367C467.179 467.933 442.164 452.405 421.774 433.213C420.823 432.312 419.864 431.39 418.927 430.473C403.714 415.569 391.199 399.395 379.094 383.754C375.129 378.628 371.026 373.329 366.904 368.171C348.973 345.683 331.944 327.77 313.315 311.794C310.888 309.713 308.385 307.628 305.87 305.594C260.042 268.53 199.629 238.445 131.165 218.595C49.4502 194.993 -34.5292 187.085 -105.302 196.33C-181.482 206.413 -253.939 246.55 -243.326 296.269L-243.598 296.292C-246.231 283.957 -243.953 271.815 -236.83 260.205C-230.301 249.568 -219.85 239.556 -205.764 230.45C-192.628 221.959 -176.915 214.603 -159.058 208.585C-142.056 202.854 -123.485 198.557 -105.357 196.157C-68.0852 191.289 -27.4613 191.111 15.3885 195.627C53.9652 199.692 92.9568 207.366 131.281 218.436C199.786 238.297 260.231 268.399 306.082 305.486C308.596 307.522 311.103 309.608 313.532 311.69C332.172 327.673 349.207 345.596 367.146 368.093C371.268 373.25 375.371 378.551 379.336 383.677C391.438 399.313 403.95 415.481 419.152 430.379C420.089 431.296 421.045 432.216 421.996 433.117C461.634 470.424 520.18 494.118 586.852 499.835C646.649 504.963 712.316 495.933 787.609 472.232C793.701 470.311 800 468.244 806.326 466.084C849.365 451.411 890.371 433.492 933.784 414.518C955.43 405.058 977.813 395.275 1000.25 386.039C1042.23 368.834 1077.15 356.122 1110.15 346.035C1148.99 334.162 1185.48 325.881 1221.72 320.718C1243.8 317.532 1263.06 316.089 1280.58 316.309C1303.13 316.591 1323.01 319.533 1341.36 325.306C1376.82 336.515 1405.7 356.5 1433.62 375.827C1441.45 381.247 1448.85 386.366 1456.33 391.25C1528.68 438.487 1602.6 489.412 1682.32 546.935L1682.11 547.051Z" fill="#FFE492"/>
<path d="M1679.2 545.407C1600.25 487.264 1527.66 435.755 1457.28 387.934C1449.9 382.919 1442.6 377.622 1434.86 372.013C1407.69 352.311 1379.6 331.937 1344.42 320.968C1301.37 307.598 1255.51 313.745 1224.75 319.534C1148.8 333.706 1081.06 360.691 1006.69 391.896C993.273 397.545 979.706 403.375 966.584 409.015C916.12 430.705 863.94 453.132 810.599 469.356C804.119 471.329 797.633 473.213 791.327 474.956C755.767 484.773 721.384 491.511 689.131 494.985C652.593 498.921 617.858 498.766 585.882 494.527C553.763 490.269 523.62 481.925 496.289 469.727C468.63 457.384 444.266 441.273 423.876 421.844C422.933 420.941 421.982 420.017 421.051 419.1C406.297 404.545 393.702 388.898 381.523 373.767C377.135 368.315 372.598 362.678 368.039 357.193C349.407 334.727 332.023 316.968 313.331 301.302C310.877 299.245 308.338 297.178 305.788 295.16C259.388 258.443 198.53 228.802 129.791 209.436C47.5402 186.339 -36.6673 179.031 -107.324 188.858C-181.087 199.229 -254.882 237.958 -246.36 289.31L-246.632 289.327C-248.68 276.992 -246.008 264.865 -238.696 253.281C-231.972 242.631 -221.458 232.61 -207.448 223.495C-181.6 206.678 -145.129 193.991 -107.385 188.685C-70.1574 183.508 -29.4895 183.02 13.4895 187.235C52.1596 191.028 91.3243 198.442 129.901 209.275C198.678 228.652 259.572 258.313 306.002 295.046C308.555 297.066 311.094 299.134 313.551 301.192C332.251 316.867 349.643 334.633 368.281 357.107C372.839 362.594 377.379 368.231 381.768 373.683C393.944 388.811 406.536 404.454 421.281 419.003C422.21 419.92 423.161 420.842 424.104 421.745C464.898 460.617 520.859 485.725 585.934 494.354C646.193 502.344 715.256 495.764 791.211 474.796C797.515 473.053 803.995 471.171 810.472 469.199C863.795 452.981 915.969 430.557 966.422 408.871C979.544 403.23 993.111 397.4 1006.53 391.751C1039.08 378.091 1076.96 362.423 1114.56 349.342C1153.89 335.66 1189.9 325.855 1224.67 319.368C1246.55 315.249 1265.8 313.112 1283.51 312.837C1305.84 312.488 1326.37 315.173 1344.53 320.813C1360.29 325.726 1376.15 333.059 1393.02 343.231C1407.92 352.213 1421.72 362.221 1435.06 371.898C1442.79 377.506 1450.1 382.803 1457.48 387.815C1527.86 435.638 1600.45 487.149 1679.4 545.293L1679.2 545.407Z" fill="#FFE492"/>
<path d="M1676.28 543.765C1598.11 484.995 1526.85 432.898 1458.42 384.499C1451.18 379.375 1444 373.917 1436.4 368.141C1409.94 348.029 1382.58 327.231 1347.6 316.479C1314.91 306.462 1275.7 307.019 1227.72 318.183C1160.64 333.705 1100.67 359.667 1037.18 387.155C1029.27 390.579 1021.1 394.117 1012.96 397.611C1009.78 398.983 1006.59 400.358 1003.41 401.732C942.912 427.823 880.359 454.803 814.739 472.48C808.106 474.268 801.439 475.968 794.923 477.53C758.584 486.232 723.23 491.772 689.847 493.992C652.466 496.478 617.173 494.815 584.956 489.049C553.337 483.389 523.565 473.646 496.467 460.089C470.201 446.949 446.491 430.258 425.994 410.477C425.06 409.572 424.117 408.646 423.191 407.728C408.997 393.629 396.444 378.613 384.301 364.092C379.385 358.211 374.298 352.13 369.19 346.211C349.838 323.761 332.102 306.155 313.366 290.806C310.877 288.767 308.307 286.72 305.724 284.721C258.736 248.361 197.428 219.16 128.419 200.278C45.6353 177.689 -38.8057 170.979 -109.345 181.388C-181.752 192.161 -255.443 231.208 -249.389 282.354L-249.664 282.368C-251.123 270.031 -248.062 257.917 -240.56 246.363C-233.637 235.701 -223.063 225.669 -209.128 216.546C-183.39 199.694 -147.045 186.819 -109.408 181.219C-72.2216 175.732 -31.5125 174.933 11.5929 178.848C50.3564 182.366 89.6998 189.522 128.529 200.118C197.576 219.012 258.923 248.228 305.93 284.608C308.513 286.607 311.088 288.657 313.578 290.696C332.322 306.054 350.069 323.665 369.426 346.123C374.537 352.043 379.621 358.126 384.54 364.007C396.678 378.524 409.231 393.536 423.419 407.63C424.345 408.549 425.285 409.473 426.219 410.377C467.898 450.599 522.812 477.742 585.027 488.876C646.443 499.868 717.028 495.993 794.824 477.362C801.335 475.8 807.998 474.103 814.629 472.316C880.227 454.646 942.77 427.671 1003.25 401.584C1006.44 400.209 1009.62 398.835 1012.81 397.463C1020.94 393.969 1029.11 390.43 1037.02 387.009C1100.52 359.515 1160.51 333.546 1227.62 318.018C1249.3 312.973 1268.54 310.145 1286.45 309.365C1308.87 308.391 1329.48 310.732 1347.72 316.32C1363.39 321.136 1379.05 328.502 1395.61 338.839C1410.21 347.961 1423.63 358.162 1436.61 368.028C1444.21 373.802 1451.39 379.258 1458.63 384.38C1527.06 432.782 1598.32 484.88 1676.49 543.652L1676.28 543.765Z" fill="#FFE492"/>
<path d="M1673.37 542.122C1602.02 487.357 1530.09 433.168 1459.57 381.061C1452.39 375.786 1445.28 370.12 1437.74 364.122C1413.24 344.611 1385.48 322.498 1350.78 311.986C1317.71 301.986 1278.43 303.571 1230.69 316.828C1173.92 332.539 1123.68 355.641 1070.49 380.099C1053.84 387.757 1036.61 395.679 1019.24 403.321C988.917 416.688 956.114 430.832 921.728 443.714C884.902 457.512 851.258 467.94 818.873 475.599C812.069 477.208 805.221 478.723 798.513 480.098C761.404 487.702 725.088 492.03 690.576 492.961C652.37 493.989 616.52 490.831 584.016 483.566C523.994 469.985 471.534 441.569 428.096 399.106C427.17 398.2 426.236 397.272 425.315 396.354C411.842 382.877 399.509 368.659 387.583 354.909C381.968 348.437 376.164 341.744 370.325 335.23C350.237 312.786 332.144 295.335 313.386 280.312C310.861 278.29 308.258 276.263 305.645 274.285C258.085 238.275 196.326 209.519 127.048 191.12C43.7285 169.036 -40.9406 162.927 -111.364 173.916C-184.211 185.348 -256.055 223.877 -252.42 275.397L-252.695 275.404C-253.566 263.063 -250.109 250.964 -242.422 239.439C-235.3 228.763 -224.665 218.72 -210.809 209.59C-197.756 200.988 -182.285 193.467 -164.827 187.234C-147.877 181.184 -129.913 176.646 -111.433 173.745C-74.2878 167.95 -33.5347 166.841 9.69711 170.455C48.5541 173.702 88.0706 180.599 127.153 190.957C196.472 209.367 258.266 238.14 305.854 274.168C308.467 276.148 311.075 278.177 313.6 280.199C332.367 295.23 350.468 312.688 370.564 335.14C376.404 341.655 382.207 348.348 387.822 354.822C399.748 368.57 412.078 382.786 425.546 396.258C426.464 397.178 427.401 398.104 428.325 399.01C471.73 441.44 524.142 469.833 584.107 483.401C645.874 497.205 719.985 496.006 798.427 479.93C805.13 478.555 811.978 477.042 818.777 475.435C891.184 458.314 957.433 430.351 1019.08 403.176C1036.46 395.535 1053.68 387.614 1070.33 379.956C1123.53 355.493 1173.78 332.386 1230.58 316.667C1278.39 303.389 1317.75 301.805 1350.9 311.827C1366.44 316.535 1381.86 323.915 1398.06 334.385C1412.35 343.618 1425.37 353.987 1437.96 364.012C1445.49 370.01 1452.6 375.675 1459.78 380.946C1530.3 433.054 1602.23 487.244 1673.58 542.011L1673.37 542.122Z" fill="#FFE492"/>
<path d="M1670.46 540.482C1600.2 485.414 1529.63 430.621 1460.72 377.625C1453.76 372.293 1446.86 366.527 1439.55 360.423C1415.66 340.457 1388.57 317.826 1353.97 307.492C1320.5 297.51 1281.15 300.121 1233.66 315.472C1183.9 331.532 1138.18 354.208 1093.97 376.14C1071.8 387.137 1048.88 398.508 1025.52 409.03C988.653 425.655 957.633 438.337 927.897 448.943C891.23 462.021 856.921 471.761 823.013 478.719C816.053 480.148 809.018 481.476 802.107 482.667C766.097 488.866 730.735 492.004 696.907 492.006C695.027 492.006 693.159 491.995 691.29 491.976C652.18 491.572 615.775 486.897 583.084 478.084C567.305 473.807 551.853 468.378 537.159 461.946C523.348 455.901 509.775 448.781 496.818 440.784C473.507 426.398 451.715 409.044 430.204 387.736C429.28 386.819 428.36 385.901 427.445 384.979C414.963 372.407 403.155 359.264 391.737 346.554C385.144 339.218 378.329 331.631 371.465 324.246C350.33 301.493 332.426 284.704 313.407 269.814C310.849 267.811 308.214 265.803 305.567 263.844C257.43 228.191 195.224 199.878 125.677 181.962C41.8237 160.385 -43.0763 154.876 -113.384 166.446C-184.866 178.242 -256.616 217.064 -255.449 268.439L-255.723 268.44C-256.267 244.511 -241.315 221.756 -212.486 202.637C-199.455 193.995 -184.066 186.42 -166.743 180.118C-149.886 173.986 -131.958 169.328 -113.453 166.275C-76.352 160.169 -35.555 158.752 7.80325 162.064C46.7536 165.039 86.446 171.678 125.778 181.798C195.369 199.726 257.612 228.057 305.779 263.731C308.425 265.692 311.066 267.701 313.625 269.704C332.652 284.603 350.563 301.397 371.704 324.159C378.568 331.546 385.386 339.133 391.976 346.469C403.394 359.177 415.2 372.318 427.678 384.886C428.593 385.808 429.511 386.727 430.435 387.642C476.145 432.922 526.112 462.453 583.191 477.924C662.249 499.237 745.835 492.176 802.035 482.499C808.941 481.309 815.97 479.982 822.928 478.553C900.914 462.549 972.077 432.916 1025.36 408.889C1048.72 398.37 1071.64 386.999 1093.8 376.004C1138.02 354.069 1183.75 331.385 1233.53 315.318C1254.78 308.449 1274.02 304.231 1292.33 302.425C1314.91 300.198 1335.69 301.85 1354.08 307.337C1369.58 311.965 1384.86 319.404 1400.79 330.078C1414.83 339.483 1427.51 350.075 1439.77 360.321C1447.08 366.423 1453.97 372.187 1460.93 377.515C1529.84 430.511 1600.41 485.304 1670.67 540.372L1670.46 540.482Z" fill="#FFE492"/>
<path d="M1667.54 538.839L1461.86 374.188C1455.15 368.811 1448.47 362.96 1441.41 356.767C1418.1 336.329 1391.69 313.164 1357.15 303.001C1323.75 293.174 1283.2 296.914 1236.63 314.12C1191.85 330.659 1151.01 352.654 1111.52 373.925C1085.77 387.791 1059.15 402.127 1031.8 414.744C949.595 452.669 877.751 475.068 805.707 485.238C775.819 489.456 746.336 491.579 717.742 491.579C709.075 491.579 700.496 491.384 692.007 490.994C651.974 489.153 615.013 482.965 582.155 472.605C551.702 463.001 523.842 449.444 496.994 431.156C475.554 416.554 455.002 399.145 432.317 376.369C420.344 364.349 408.75 351.861 397.538 339.783C372.163 312.453 345.925 284.192 313.44 259.32C263.613 221.171 198.211 191.254 124.303 172.803C39.9193 151.735 -45.2115 146.823 -115.404 158.974C-183.363 170.737 -257.122 207.832 -258.48 261.481L-258.754 261.478C-258.147 237.498 -242.728 214.746 -214.165 195.683C-188.339 178.447 -153.291 165.35 -115.476 158.805C-78.4158 152.391 -37.5748 150.663 5.9071 153.673C44.951 156.375 84.8192 162.758 124.404 172.641C160.975 181.77 195.707 193.788 227.639 208.362C259.838 223.057 288.777 240.163 313.649 259.205C346.147 284.086 372.394 312.354 397.774 339.691C408.986 351.767 420.58 364.253 432.55 376.271C465.648 409.503 512.578 450.465 582.279 472.445C662.213 497.65 747.866 493.219 805.646 485.064C877.655 474.9 949.466 452.51 1031.64 414.6C1058.98 401.987 1085.6 387.651 1111.34 373.789C1150.84 352.514 1191.69 330.514 1236.49 313.966C1283.14 296.731 1323.78 292.988 1357.27 302.841C1372.73 307.392 1387.87 314.895 1403.55 325.784C1417.35 335.368 1429.7 346.194 1441.63 356.663C1448.7 362.855 1455.37 368.703 1462.08 374.079L1667.76 538.729L1667.54 538.839Z" fill="#FFE492"/>
<path d="M1665.89 526.18C1613.51 480.336 1568.57 443.135 1524.47 409.11C1503.06 392.582 1481.19 376.312 1459.48 360.755C1452.91 356.048 1446.4 351.043 1439.51 345.742C1422.2 332.42 1404.3 318.646 1383.69 308.423C1372.63 302.924 1361.98 298.986 1351.14 296.386C1317.85 288.324 1278.8 293.654 1235.07 312.23C1212.43 321.828 1191.82 332.752 1174.64 342.171C1156.46 352.142 1138.52 363.139 1121.18 373.773C1096.24 389.059 1070.46 404.864 1042.74 418.439C1025.88 426.723 1008.79 434.126 991.932 440.442C958.213 453.079 922.022 463.492 884.363 471.391C861.096 476.217 837.716 479.866 814.877 482.233C795.193 484.265 775.473 485.438 756.262 485.719C727.509 486.14 699.496 484.531 672.999 480.932C644.827 477.105 618.165 470.995 593.758 462.772C571.993 455.439 551.435 446.207 530.91 434.544C492.664 412.83 462.158 387.722 439.855 368.274C428.899 358.675 418.201 348.886 407.854 339.42C378.063 312.158 349.923 286.409 314.71 263.473C285.991 244.889 253.223 228.852 217.31 215.804C189.711 205.776 159.695 197.575 128.095 191.428C120.568 189.965 112.899 188.602 105.306 187.381C72.6154 182.129 35.814 178.709 -4.0735 177.215C-44.288 175.675 -79.0806 177.008 -110.433 181.296C-128.157 183.701 -145.33 187.475 -161.48 192.51C-218.496 210.289 -255.108 240.134 -259.417 272.348L-259.76 272.329C-258.611 263.741 -255.239 255.282 -249.741 247.184C-244.517 239.493 -237.342 232.074 -228.416 225.136C-211.552 212.028 -188.457 200.678 -161.631 192.313C-145.456 187.269 -128.256 183.49 -110.504 181.081C-79.1191 176.79 -44.299 175.455 -4.05153 176.998C35.8579 178.491 72.6786 181.915 105.391 187.17C112.992 188.393 120.664 189.756 128.197 191.22C159.821 197.371 189.862 205.579 217.483 215.615C253.421 228.672 286.216 244.723 314.949 263.319C350.184 286.269 378.33 312.026 408.132 339.295C418.475 348.761 429.173 358.548 440.127 368.145C462.419 387.584 492.911 412.68 531.136 434.38C551.639 446.03 572.175 455.254 593.914 462.579C641.683 478.672 696.3 486.384 756.251 485.501C775.445 485.22 795.151 484.047 814.819 482.016C837.641 479.649 861.005 476.005 884.253 471.182C921.89 463.288 958.059 452.882 991.756 440.252C1008.6 433.941 1025.68 426.542 1042.53 418.265C1070.23 404.697 1096.01 388.895 1120.93 373.614C1138.29 362.979 1156.22 351.979 1174.42 342.003C1191.6 332.579 1212.22 321.652 1234.87 312.047C1254.35 303.776 1273.2 298.062 1290.92 295.063C1312.68 291.378 1332.98 291.755 1351.26 296.182C1362.14 298.791 1372.82 302.739 1383.91 308.25C1404.54 318.489 1422.45 332.272 1439.78 345.603C1446.67 350.901 1453.17 355.907 1459.73 360.61C1481.46 376.17 1503.32 392.44 1524.74 408.973C1568.84 443.001 1613.79 480.205 1666.17 526.053L1665.89 526.18Z" fill="#FFE492"/>
<path d="M1664.23 513.52C1615.67 466.9 1570.09 427.889 1524.9 394.257C1502.85 377.83 1480.04 362.038 1457.09 347.322C1451 343.418 1444.99 339.36 1438.63 335.065C1419.57 322.204 1399.86 308.905 1377.79 299.703C1366.64 295.037 1355.96 291.788 1345.13 289.77C1303.66 282.038 1261.54 296.686 1233.5 310.336C1213.64 319.978 1195.5 330.88 1177.12 342.135C1161.04 351.986 1145.9 362.584 1129.88 373.802C1106.1 390.454 1081.51 407.673 1053.69 422.131C1037.18 430.757 1019.94 438.216 1002.47 444.299C969.917 455.632 934.273 464.432 893.498 471.205C870.678 474.995 847.309 477.695 824.039 479.227C804.404 480.504 784.805 480.961 765.784 480.579C737.484 480.018 709.823 477.494 683.563 473.079C655.984 468.441 629.669 461.664 605.352 452.937C584.046 445.292 563.475 435.807 542.46 423.941C504.296 402.42 471.603 378.562 447.387 360.18C438.423 353.375 429.602 346.529 421.07 339.906C387.09 313.531 354.996 288.616 315.98 267.627C286.821 251.94 254.084 238.676 218.684 228.204C191.899 220.28 163.509 214.344 131.896 210.054C124.6 209.066 117.177 208.175 109.837 207.407C77.5976 204.048 43.1897 202.777 1.55997 201.463C-28.4484 200.468 -67.7313 199.812 -105.47 203.616C-123.343 205.383 -140.62 208.452 -156.825 212.735C-213.879 227.817 -252.582 254.164 -260.359 283.216L-260.766 283.173C-258.705 275.469 -254.528 267.913 -248.358 260.713C-242.478 253.852 -234.75 247.274 -225.393 241.156C-207.611 229.534 -183.956 219.622 -156.984 212.493C-140.749 208.201 -123.439 205.127 -105.536 203.356C-67.7615 199.547 -28.4484 200.205 1.57919 201.2C43.2227 202.514 77.6416 203.785 109.903 207.145C117.249 207.916 124.677 208.806 131.981 209.795C163.624 214.089 192.042 220.031 218.857 227.963C254.292 238.446 287.057 251.721 316.246 267.423C355.29 288.428 387.398 313.349 421.388 339.735C429.918 346.356 438.739 353.203 447.703 360.006C471.913 378.38 504.593 402.23 542.735 423.74C563.725 435.594 584.274 445.069 605.555 452.705C653.37 469.865 707.286 479.154 765.797 480.314C784.803 480.694 804.382 480.239 823.998 478.962C847.246 477.431 870.596 474.735 893.393 470.947C934.135 464.181 969.75 455.388 1002.27 444.065C1019.73 437.989 1036.94 430.541 1053.43 421.924C1081.23 407.478 1105.81 390.266 1129.58 373.622C1145.61 362.399 1160.74 351.8 1176.84 341.943C1195.22 330.682 1213.37 319.776 1233.26 310.123C1251.43 301.274 1269.36 294.908 1286.54 291.199C1307.38 286.702 1327.13 286.136 1345.25 289.514C1356.12 291.541 1366.84 294.8 1378.02 299.48C1400.13 308.699 1419.86 322.01 1438.93 334.882C1445.29 339.175 1451.31 343.231 1457.39 347.134C1480.35 361.855 1503.16 377.652 1525.21 394.085C1570.42 427.725 1616.01 466.743 1664.57 513.374L1664.23 513.52Z" fill="#FFE492"/>
<path d="M1662.57 500.858C1617.12 452.83 1572.23 413.102 1525.32 379.405C1502.65 363.078 1478.89 347.766 1454.71 333.89C1449.55 330.923 1444.23 327.775 1439.08 324.732C1417.84 312.158 1395.87 299.157 1371.88 290.984C1360.63 287.122 1349.91 284.56 1339.13 283.153C1297.75 277.751 1258 293.923 1231.95 308.439C1214.28 318.238 1198.14 329.344 1182.53 340.086L1179.6 342.098C1165.43 351.843 1152.13 362.531 1138.05 373.848C1115.63 391.869 1092.44 410.501 1064.63 425.822C1048.45 434.802 1031.08 442.316 1013 448.155C981.484 458.336 946.408 465.601 902.624 471.018C879.983 473.819 856.625 475.569 833.195 476.218C813.61 476.739 794.132 476.477 775.297 475.437C718.276 472.301 664.998 461.421 616.94 443.101C596.165 435.18 575.58 425.446 554.011 413.336C517.509 392.885 485.044 371.864 454.923 352.087C450.883 349.436 446.888 346.802 442.922 344.189C401.782 317.087 362.925 291.488 317.258 271.785C287.445 258.922 254.741 248.432 220.058 240.606C194.595 234.862 166.999 230.961 135.699 228.681C128.645 228.17 121.47 227.75 114.372 227.433C96.5154 226.649 77.576 226.521 57.5237 226.387C41.4176 226.279 24.7646 226.167 7.19104 225.713C-26.7497 224.759 -65.2164 223.68 -100.512 225.939C-118.723 227.105 -136.104 229.469 -152.175 232.965C-209.207 245.375 -250.004 268.228 -261.307 294.095L-261.771 294.014C-258.792 287.193 -253.813 280.54 -246.973 274.239C-240.433 268.214 -232.156 262.472 -222.373 257.175C-203.662 247.045 -179.441 238.574 -152.334 232.676C-136.228 229.171 -118.811 226.802 -100.564 225.634C-65.2329 223.373 -26.747 224.454 7.20752 225.408C24.7701 225.861 41.4231 225.974 57.5237 226.082C77.5843 226.216 96.5291 226.343 114.402 227.13C121.506 227.449 128.689 227.869 135.749 228.379C167.087 230.661 194.716 234.567 220.215 240.321C254.938 248.155 287.678 258.657 317.525 271.534C363.232 291.254 402.109 316.866 443.266 343.98C447.231 346.593 451.229 349.225 455.266 351.877C485.382 371.652 517.836 392.667 554.327 413.111C575.874 425.207 596.437 434.933 617.188 442.843C665.182 461.141 718.392 472.005 775.339 475.137C794.152 476.176 813.61 476.437 833.173 475.916C856.578 475.268 879.915 473.519 902.531 470.722C946.271 465.31 981.305 458.054 1012.78 447.887C1030.82 442.06 1048.16 434.56 1064.31 425.596C1092.09 410.294 1115.26 391.672 1137.66 373.661C1151.75 362.339 1165.06 351.646 1179.24 341.894L1182.17 339.882C1197.79 329.135 1213.94 318.022 1231.62 308.212C1257.76 293.649 1297.65 277.431 1339.22 282.857C1350.05 284.27 1360.81 286.841 1372.11 290.719C1396.15 298.91 1418.14 311.925 1439.41 324.512C1444.55 327.556 1449.87 330.704 1455.03 333.668C1479.22 347.551 1502.99 362.872 1525.68 379.208C1572.6 412.919 1617.51 452.661 1662.97 500.705L1662.57 500.858Z" fill="#FFE492"/>
<path d="M1660.91 488.195C1619.18 439.441 1573.71 397.841 1525.76 364.554C1502.44 348.33 1477.74 333.495 1452.34 320.461C1448.67 318.579 1444.91 316.625 1441.28 314.735C1417.27 302.254 1392.44 289.345 1365.99 282.269C1354.64 279.199 1343.9 277.325 1333.14 276.538C1291.88 273.519 1254.49 291.187 1230.39 306.541C1215.43 316.027 1201.92 326.575 1188.86 336.777C1186.6 338.543 1184.35 340.305 1182.08 342.06C1169.66 351.702 1158.04 362.474 1145.75 373.877C1124.84 393.262 1103.22 413.307 1075.58 429.517C1059.34 439.035 1042.32 446.394 1023.53 452.017C984.243 463.777 944.976 468.129 911.75 470.838C889.277 472.668 865.93 473.47 842.352 473.215C822.827 472.98 803.467 471.999 784.814 470.301C729.504 465.279 676.924 452.821 628.534 433.269C608.399 425.137 587.803 415.149 565.563 402.737C543.098 390.23 522.164 378.194 501.916 366.554C488.157 358.643 475.159 351.171 462.466 344.002C414.485 316.902 370.536 293.075 318.547 275.948C288.093 265.917 255.422 258.2 221.44 253.011C197.084 249.291 171.05 247.48 139.511 247.308C132.707 247.276 125.776 247.327 118.914 247.459C108.491 247.674 97.7077 248.122 86.2952 248.597C64.3935 249.509 39.5652 250.543 12.8215 249.964C2.63733 249.742 -7.75291 249.43 -17.8024 249.127C-43.6503 248.348 -70.3775 247.543 -95.5576 248.263C-114.049 248.793 -131.537 250.452 -147.531 253.195C-204.467 262.965 -247.355 282.324 -262.261 304.981L-262.769 304.847C-258.867 298.914 -253.085 293.166 -245.586 287.761C-238.383 282.57 -229.556 277.667 -219.356 273.189C-199.699 264.561 -174.915 257.532 -147.679 252.859C-131.647 250.109 -114.12 248.444 -95.5878 247.914C-70.3802 247.192 -43.642 247.999 -17.7804 248.779C-7.73367 249.082 2.65659 249.394 12.838 249.615C39.5569 250.194 64.3661 249.162 86.2567 248.25C97.6748 247.775 108.461 247.327 118.895 247.112C125.765 246.98 132.701 246.929 139.513 246.961C171.096 247.131 197.169 248.948 221.566 252.672C255.59 257.868 288.305 265.595 318.797 275.64C342.281 283.375 366.079 293.176 391.55 305.6C414.354 316.722 436.536 328.892 462.829 343.742C475.522 350.913 488.52 358.385 502.282 366.297C522.526 377.934 543.461 389.97 565.92 402.476C588.138 414.876 608.713 424.852 628.823 432.977C677.146 452.502 729.653 464.943 784.885 469.958C803.517 471.654 822.852 472.633 842.354 472.868C865.905 473.123 889.228 472.323 911.673 470.493C944.858 467.789 984.072 463.442 1023.29 451.703C1042.03 446.096 1059.01 438.756 1075.2 429.262C1102.8 413.08 1124.4 393.051 1145.29 373.682C1157.59 362.272 1169.21 351.495 1181.65 341.842C1183.91 340.087 1186.17 338.325 1188.43 336.561C1201.5 326.352 1215.01 315.797 1230 306.299C1245.67 296.31 1261.76 288.625 1277.8 283.459C1296.8 277.339 1315.44 274.896 1333.19 276.196C1344 276.987 1354.8 278.87 1366.2 281.951C1392.71 289.047 1417.57 301.971 1441.61 314.469C1445.25 316.358 1449 318.312 1452.67 320.193C1478.09 333.237 1502.81 348.086 1526.15 364.322C1551.61 381.997 1576.55 402.136 1600.26 424.178C1621.22 443.659 1641.79 465.143 1661.38 488.031L1660.91 488.195Z" fill="#FFE492"/>
<path d="M1659.25 475.529C1620.63 425.378 1575.86 383.044 1526.19 349.702C1502.24 333.581 1476.59 319.226 1449.97 307.032C1448.7 306.452 1447.43 305.871 1446.16 305.289C1418.48 292.593 1389.85 279.465 1360.11 273.554C1348.59 271.264 1337.81 270.077 1327.16 269.924C1286.06 269.335 1251.01 288.48 1228.85 304.643C1215.81 314.098 1204.23 324.462 1193.03 334.484C1190.27 336.963 1187.4 339.525 1184.58 342.021C1173.81 351.527 1163.81 362.336 1153.22 373.78C1133.95 394.597 1114.03 416.121 1086.53 433.209C1070.62 443.096 1053.46 450.51 1034.07 455.879C995.878 466.453 957.095 469.23 920.876 470.656C898.543 471.534 875.204 471.384 851.508 470.211C832.047 469.218 812.81 467.518 794.33 465.162C740.903 458.364 689.02 444.326 640.13 423.436C620.551 415.072 600.529 405.126 577.124 392.137C532.642 367.519 499.611 350.18 470.026 335.917C411.182 307.55 366.271 290.861 319.86 280.113C288.788 272.918 256.15 267.973 222.847 265.415C199.742 263.64 175.221 263.799 143.344 265.934C136.812 266.377 130.129 266.898 123.479 267.485C117.197 268.048 110.816 268.693 104.058 269.375C79.1091 271.893 50.8293 274.748 18.4631 274.215C1.40344 273.934 -16.0218 273.166 -32.8726 272.423C-52.0235 271.58 -71.8257 270.706 -90.6002 270.588C-109.424 270.469 -127.02 271.425 -142.884 273.429C-199.631 280.594 -244.616 296.464 -263.217 315.88L-263.745 315.676C-258.913 310.631 -252.329 305.788 -244.176 301.279C-236.306 296.925 -226.935 292.862 -216.322 289.2C-195.706 282.085 -170.353 276.497 -143.005 273.044C-127.097 271.036 -109.463 270.077 -90.5947 270.196C-71.8038 270.314 -51.9906 271.187 -32.8314 272.033C-15.986 272.775 1.43088 273.544 18.4768 273.825C50.7853 274.356 79.0349 271.505 103.957 268.99C110.717 268.306 117.103 267.663 123.388 267.098C130.046 266.511 136.735 265.99 143.273 265.545C175.199 263.409 199.761 263.248 222.916 265.028C256.266 267.59 288.95 272.542 320.066 279.747C366.541 290.509 411.498 307.215 470.394 335.607C499.99 349.875 533.032 367.22 577.525 391.845C600.914 404.823 620.914 414.758 640.471 423.114C689.295 443.974 741.101 457.993 794.448 464.78C812.904 467.133 832.118 468.829 851.552 469.823C875.221 470.994 898.529 471.144 920.835 470.267C956.999 468.843 995.716 466.073 1033.82 455.523C1053.14 450.176 1070.24 442.785 1086.09 432.934C1113.53 415.882 1133.44 394.381 1152.68 373.587C1163.28 362.135 1173.29 351.318 1184.07 341.798C1186.9 339.304 1189.76 336.742 1192.53 334.263C1203.73 324.232 1215.32 313.861 1228.38 304.39C1242.84 293.841 1258.01 285.497 1273.45 279.589C1291.53 272.667 1309.61 269.288 1327.17 269.537C1337.89 269.69 1348.72 270.884 1360.3 273.185C1390.13 279.116 1418.8 292.262 1446.52 304.977C1447.79 305.559 1449.06 306.142 1450.33 306.72C1476.98 318.928 1502.66 333.301 1526.64 349.439C1576.35 382.811 1621.16 425.178 1659.8 475.364L1659.25 475.529Z" fill="#FFE492"/>
<path d="M934.55 470.475C933.009 470.475 931.489 470.473 929.994 470.468C907.776 470.408 884.446 469.31 860.656 467.201C841.266 465.45 822.151 463.032 803.841 460.018C777.68 455.72 751.425 449.543 725.8 441.659C701.054 434.046 676.132 424.606 651.724 413.599C627.809 402.815 605.47 390.799 588.68 381.535C549.394 359.918 512.015 341.85 477.583 327.831C421.814 305.127 372.116 291.286 321.177 284.274C290.445 280.044 257.475 277.813 225.73 277.813C225.238 277.813 224.749 277.813 224.257 277.814C196.985 277.874 171.094 281.088 147.18 284.553C140.956 285.461 134.517 286.453 128.043 287.504C124.495 288.086 120.942 288.685 117.183 289.32C90.6674 293.801 60.6123 298.878 24.0994 298.462C1.86243 298.207 -20.8499 296.747 -42.8148 295.333C-56.9974 294.42 -71.6608 293.477 -85.6482 292.907C-104.876 292.124 -122.571 292.375 -138.245 293.656C-194.689 298.265 -241.771 310.647 -264.192 326.78L-264.709 326.493C-253.209 318.219 -235.91 311.055 -213.294 305.199C-191.694 299.607 -165.772 295.466 -138.333 293.226C-122.617 291.943 -104.876 291.689 -85.6042 292.475C-71.6031 293.045 -56.9314 293.989 -42.7434 294.903C-20.7922 296.316 1.90637 297.777 24.1131 298.03C60.5326 298.446 90.5354 293.376 117.007 288.903C120.769 288.267 124.322 287.668 127.873 287.085C134.353 286.034 140.797 285.041 147.026 284.133C170.981 280.662 196.917 277.443 224.254 277.382C256.505 277.311 290.066 279.549 321.322 283.852C347.612 287.472 373.1 292.801 399.237 300.142C424.409 307.213 450.157 316.152 477.951 327.469C512.411 341.498 549.817 359.58 589.127 381.211C605.904 390.469 628.226 402.477 652.117 413.249C701.645 435.583 752.75 451.178 804.011 459.602C822.297 462.612 841.387 465.026 860.75 466.776C884.509 468.882 907.807 469.98 929.994 470.037C964.713 470.128 1005.03 469.385 1044.34 459.337C1064.25 454.251 1081.46 446.813 1096.98 436.601C1124.23 418.666 1142.3 395.646 1159.77 373.383C1168.76 361.931 1177.25 351.114 1186.48 341.751C1189.44 338.751 1192.42 335.661 1195.31 332.672C1205.06 322.573 1215.14 312.132 1226.75 302.481C1240.02 291.378 1254.27 282.372 1269.08 275.714C1286.26 267.994 1303.77 263.675 1321.13 262.877C1331.84 262.384 1342.72 262.887 1354.37 264.418C1385.54 268.507 1416.43 280.387 1447.97 293.245C1475.46 304.456 1502.83 318.74 1527.11 334.554C1554.07 352.069 1579.41 372.618 1602.42 395.627C1622.91 416.126 1641.68 438.691 1658.21 462.696L1657.58 462.87C1622.09 411.319 1578.03 368.25 1526.62 334.859C1502.37 319.068 1475.05 304.805 1447.59 293.613C1416.11 280.777 1385.28 268.92 1354.23 264.845C1342.64 263.323 1331.83 262.823 1321.18 263.313C1289.28 264.782 1255.94 278.785 1227.3 302.746C1215.71 312.38 1205.63 322.812 1195.89 332.9C1193.01 335.891 1190.02 338.983 1187.06 341.983C1177.85 351.329 1169.37 362.137 1160.39 373.578C1151.81 384.501 1142.95 395.798 1132.78 406.657C1121.24 418.967 1109.7 428.861 1097.48 436.905C1081.89 447.162 1064.6 454.633 1044.6 459.743C1026.97 464.25 1008.02 467.229 986.661 468.854C968.576 470.222 950.412 470.475 934.55 470.475Z" fill="#FFE492"/>
<path d="M978.618 471.349C964.606 471.349 951.146 470.819 939.104 470.282C916.963 469.296 893.644 467.248 869.796 464.194C850.489 461.686 831.494 458.552 813.341 454.876C763.632 444.831 714.555 428.111 663.307 403.763C640.958 393.146 619.889 381.722 600.229 370.933C561.417 349.695 522.697 332.474 485.14 319.747C429.905 301.029 378.225 291.078 322.501 288.432C290.751 286.924 257.269 287.54 225.672 290.21C199.225 292.445 174.292 297.837 151.017 303.167C145.194 304.508 139 305.972 132.61 307.518C131.014 307.907 129.404 308.302 127.771 308.701C100.964 315.276 70.6317 322.715 31.7032 322.715C31.0465 322.715 30.3925 322.713 29.7302 322.708C3.39319 322.539 -23.4962 320.155 -49.5034 317.847C-59.8139 316.932 -70.4763 315.987 -80.7071 315.222C-100.691 313.73 -117.998 313.289 -133.62 313.878C-190.441 316.022 -238.402 324.695 -265.201 337.679L-265.66 337.297C-252.411 330.879 -233.255 325.307 -210.268 321.183C-187.657 317.127 -161.169 314.436 -133.667 313.399C-118 312.808 -100.649 313.249 -80.6219 314.744C-70.3801 315.51 -59.715 316.456 -49.4017 317.369C-23.4192 319.674 3.4454 322.056 29.7329 322.225C69.472 322.483 100.299 314.92 127.494 308.25C129.123 307.851 130.736 307.455 132.333 307.065C138.728 305.517 144.924 304.053 150.753 302.713C174.067 297.372 199.047 291.972 225.565 289.731C257.211 287.057 290.748 286.44 322.551 287.949C350.165 289.26 376.494 292.356 403.04 297.41C430.38 302.617 457.349 309.782 485.489 319.32C523.093 332.065 561.862 349.306 600.716 370.566C620.367 381.351 641.422 392.768 663.753 403.374C714.932 427.689 763.934 444.385 813.564 454.414C831.689 458.083 850.659 461.213 869.939 463.718C893.753 466.768 917.04 468.815 939.148 469.798C976.351 471.454 1015.93 472.304 1054.86 463.141C1075.35 458.318 1092.69 450.834 1107.86 440.259C1134.89 421.423 1151.72 395.729 1166.57 373.06C1174.04 361.654 1181.09 350.88 1188.88 341.696C1191.69 338.383 1194.52 334.958 1197.25 331.646C1205.8 321.284 1214.64 310.57 1225.11 300.563C1237.22 288.906 1250.55 279.238 1264.71 271.827C1280.98 263.316 1297.92 258.059 1315.07 256.206C1325.79 255.047 1336.71 254.862 1348.44 255.636C1381.21 257.803 1414.5 268.508 1445.6 279.756C1474.31 290.14 1502.66 303.938 1527.58 319.656C1555.29 337.09 1580.83 357.843 1603.48 381.337C1623.74 402.347 1641.62 425.452 1656.62 450.015L1655.92 450.187C1624.02 397.978 1579.46 352.958 1527.04 319.994C1502.18 304.306 1473.88 290.534 1445.23 280.17C1414.2 268.949 1381 258.27 1348.36 256.112C1336.7 255.341 1325.86 255.526 1315.21 256.677C1283.54 260.098 1251.77 275.776 1225.75 300.825C1215.3 310.81 1206.47 321.514 1197.92 331.866C1195.19 335.179 1192.36 338.604 1189.55 341.921C1181.78 351.084 1174.73 361.847 1167.27 373.241C1152.4 395.945 1135.54 421.681 1108.42 440.58C1093.16 451.212 1075.73 458.738 1055.13 463.589C1037.25 467.797 1017.96 470.234 996.161 471.034C990.267 471.26 984.397 471.349 978.618 471.349Z" fill="#FFE492"/>
<path d="M1006.28 473.236C1006.08 473.236 1005.88 473.236 1005.68 473.236C985.875 473.204 966.433 471.667 948.213 470.095C926.106 468.188 902.8 465.188 878.939 461.183C859.719 457.922 840.846 454.068 822.846 449.731C775.124 438.25 728.114 420.519 674.898 393.926C655.734 384.351 636.874 374.042 618.633 364.073C616.352 362.825 614.068 361.579 611.785 360.333C572.771 339.1 532.708 322.724 492.71 311.663C437.94 296.518 382.702 290.279 323.839 292.588C291.564 293.855 258.112 297.318 227.101 302.603C202.632 306.774 180.83 313.466 154.866 321.78C149.604 323.472 143.984 325.299 137.186 327.53L136.806 327.655C123.69 331.988 108.823 336.898 92.1483 340.632C72.9974 344.92 54.418 346.983 35.366 346.959C5.65723 346.912 -24.6617 343.405 -53.9803 340.011C-61.1636 339.18 -68.5942 338.321 -75.7665 337.543C-96.3354 335.318 -113.747 334.193 -128.996 334.108C-185.143 333.794 -235.163 339.072 -266.226 348.585L-266.583 348.115C-251.368 343.454 -230.843 339.672 -207.229 337.176C-183.571 334.674 -156.514 333.433 -128.987 333.587C-113.695 333.672 -96.2393 334.798 -75.6264 337.029C-68.4486 337.807 -61.0179 338.666 -53.8319 339.497C-24.549 342.886 5.73141 346.389 35.3688 346.436C35.5007 346.436 35.6353 346.436 35.7672 346.436C78.1609 346.436 110.458 335.769 136.427 327.192L136.809 327.066C143.61 324.833 149.23 323.007 154.495 321.314C180.503 312.986 202.344 306.283 226.889 302.1C257.953 296.804 291.459 293.336 323.79 292.067C352.594 290.937 379.764 291.798 406.857 294.702C436.052 297.831 464.244 303.222 493.04 311.186C533.114 322.268 573.246 338.669 612.323 359.937C614.607 361.184 616.89 362.432 619.171 363.68C637.404 373.644 656.259 383.951 675.407 393.518C728.553 420.078 775.495 437.785 823.137 449.247C841.112 453.578 859.958 457.425 879.15 460.682C902.978 464.683 926.251 467.677 948.323 469.58C987.859 472.993 1026.56 475.36 1065.39 466.966C1086.47 462.41 1103.92 454.878 1118.75 443.939C1145.55 424.179 1160.18 396.798 1173.1 372.639C1179.14 361.328 1184.85 350.644 1191.29 341.666C1193.77 338.211 1196.26 334.638 1198.66 331.181C1206.18 320.375 1213.96 309.202 1223.49 298.668C1234.46 286.451 1246.87 276.118 1260.35 267.958C1275.72 258.657 1292.09 252.466 1309.03 249.559C1319.53 247.756 1330.24 246.878 1341.76 246.878C1342.01 246.878 1342.26 246.878 1342.51 246.88C1378.31 246.998 1415.14 257.313 1443.24 266.286C1473.17 275.847 1502.5 289.156 1528.06 304.777C1556.53 322.13 1582.27 343.088 1604.56 367.07C1624.57 388.59 1641.55 412.238 1655.04 437.358L1654.26 437.527C1634.19 400.15 1595.89 346.846 1527.48 305.155C1501.99 289.569 1472.72 276.291 1442.87 266.753C1414.85 257.805 1378.13 247.519 1342.51 247.403C1330.78 247.359 1319.9 248.234 1309.25 250.064C1277.87 255.452 1247.67 272.805 1224.2 298.927C1214.69 309.438 1206.93 320.598 1199.42 331.392C1197.01 334.85 1194.52 338.425 1192.05 341.882C1185.62 350.837 1179.92 361.508 1173.88 372.806C1160.94 397.009 1146.28 424.442 1119.38 444.279C1104.45 455.291 1086.88 462.873 1065.66 467.459C1047.68 471.344 1028.25 473.236 1006.28 473.236Z" fill="#FFE492"/>
<path d="M1028.27 475.69C1024 475.69 1019.65 475.602 1015.18 475.428C995.65 474.666 976.667 472.381 957.321 469.906C934.894 467.037 912.245 463.199 888.079 458.173C868.958 454.16 850.208 449.59 832.349 444.586C787.042 431.911 742.057 413.252 686.49 384.088C672.689 376.846 658.894 369.25 645.553 361.903C638.29 357.905 630.782 353.769 623.343 349.73C583.865 328.354 542.463 312.828 500.287 303.579C444.56 291.359 387.286 289.121 325.186 296.738C292.377 300.763 258.956 307.074 228.538 314.989C204.103 321.347 182.817 330.277 160.28 339.731L158.722 340.384C155.202 341.866 151.643 343.368 148.041 344.888C145.966 345.765 143.877 346.647 141.77 347.536C128.629 353.108 114.435 358.921 98.1586 363.395C79.2605 368.59 60.5685 371.145 41.0081 371.208C8.44406 371.309 -24.7712 366.508 -56.89 361.862C-61.4737 361.198 -66.2168 360.513 -70.8197 359.862C-92.3999 356.812 -109.413 355.057 -124.368 354.335C-179.553 351.674 -231.634 353.549 -267.259 359.482L-267.487 358.935C-231.768 352.986 -179.581 351.104 -124.299 353.771C-109.303 354.494 -92.246 356.254 -70.6246 359.31C-66.0189 359.962 -61.2759 360.647 -56.6894 361.311C-24.9636 365.9 7.8313 370.643 39.9638 370.643C40.3101 370.643 40.6564 370.643 41.0054 370.641C82.5664 370.509 112.151 359.413 141.278 347.065C143.385 346.176 145.474 345.294 147.549 344.418C151.151 342.896 154.707 341.395 158.23 339.912L159.788 339.258C182.363 329.789 203.685 320.844 228.2 314.464C258.673 306.534 292.152 300.212 325.018 296.18C387.275 288.544 444.703 290.789 500.581 303.042C542.862 312.315 584.36 327.877 623.926 349.3C631.365 353.34 638.875 357.474 646.138 361.475C659.474 368.82 673.266 376.414 687.059 383.651C742.56 412.781 787.482 431.414 832.709 444.068C850.544 449.064 869.266 453.629 888.359 457.634C912.489 462.654 935.106 466.487 957.499 469.35C991.492 473.699 1033.8 479.113 1075.93 470.774C1097.59 466.488 1115.16 458.91 1129.64 447.605C1156.18 426.898 1168.48 397.774 1179.34 372.081C1184.05 360.919 1188.51 350.375 1193.71 341.625C1195.73 338.216 1197.76 334.69 1199.73 331.279C1206.31 319.84 1213.12 308.012 1221.86 296.762C1231.73 283.978 1243.21 272.981 1255.98 264.078C1270.46 253.989 1286.27 246.866 1302.98 242.904C1313.7 240.361 1324.69 238.794 1336.57 238.112C1352.49 237.199 1369.43 238.175 1388.37 241.089C1404.39 243.558 1421.56 247.389 1440.88 252.804C1472.02 261.538 1502.33 274.361 1528.53 289.886C1557.77 307.158 1583.71 328.323 1605.64 352.791C1625.39 374.824 1641.48 399.014 1653.46 424.69L1652.6 424.85C1627.3 370.643 1583.02 322.859 1527.92 290.301C1501.79 274.818 1471.57 262.032 1440.51 253.324C1398.9 241.656 1365.9 237 1336.65 238.677C1324.85 239.353 1313.94 240.91 1303.29 243.434C1263.54 252.858 1237.5 277.773 1222.66 297.012C1213.94 308.233 1207.14 320.047 1200.56 331.472C1198.6 334.885 1196.57 338.413 1194.54 341.824C1189.36 350.548 1184.91 361.079 1180.2 372.227C1169.32 397.976 1156.99 427.161 1130.34 447.962C1115.74 459.356 1098.02 466.996 1076.19 471.316C1061.39 474.245 1045.61 475.69 1028.27 475.69Z" fill="#FFE492"/>
<path d="M1047.32 478.504C1018.26 478.504 990.324 473.768 966.422 469.717C943.935 465.907 921.297 461.145 897.213 455.161C878.2 450.403 859.571 445.115 841.846 439.441C788.713 422.454 741.346 398.071 698.075 374.252C689.24 369.389 680.315 364.376 671.686 359.529C659.705 352.797 647.314 345.837 634.898 339.13C594.829 317.543 552.09 302.862 507.869 295.494C450.663 285.965 391.347 287.728 326.532 300.884C293.16 307.657 259.772 316.816 229.975 327.372C206.994 335.512 187.549 345.788 166.963 356.668C165.504 357.439 164.042 358.213 162.572 358.986L161.775 359.408C156.771 362.056 151.596 364.792 146.35 367.539C133.781 374.15 119.939 380.988 103.929 386.212C85.3445 392.276 66.6084 395.3 46.6441 395.457C11.6014 395.734 -24.1146 389.485 -58.6517 383.442C-61.0727 383.019 -63.4827 382.597 -65.8817 382.18C-88.6573 378.217 -105.272 375.867 -119.748 374.56C-173.549 369.704 -227.696 368.177 -268.306 370.372L-268.389 369.763C-227.712 367.564 -173.486 369.092 -119.614 373.955C-105.096 375.266 -88.4457 377.621 -65.6289 381.591C-63.2299 382.008 -60.8199 382.43 -58.3961 382.855C-23.925 388.886 11.7223 395.119 46.6304 394.847C89.9858 394.505 120.519 380.329 145.735 367.069C150.981 364.322 156.155 361.585 161.159 358.939L161.956 358.518C163.427 357.742 164.889 356.97 166.348 356.199C186.969 345.3 206.447 335.006 229.505 326.839C259.357 316.264 292.809 307.089 326.238 300.303C356.967 294.067 385.829 290.466 414.472 289.295C446.423 287.989 477.926 289.877 508.11 294.905C552.472 302.296 595.338 317.019 635.519 338.665C647.943 345.375 660.337 352.337 672.321 359.07C680.95 363.917 689.87 368.928 698.702 373.79C741.928 397.583 789.238 421.94 842.275 438.896C859.975 444.56 878.576 449.842 897.562 454.593C921.61 460.568 944.212 465.323 966.666 469.128C1001.14 474.971 1044.05 482.242 1086.45 474.591C1108.69 470.575 1126.38 462.949 1140.52 451.278C1166.78 429.597 1176.61 398.681 1185.28 371.404C1188.76 360.444 1192.05 350.092 1196.11 341.591C1197.61 338.447 1199.11 335.198 1200.57 332.055C1206.27 319.764 1212.16 307.052 1220.22 294.863C1228.99 281.5 1239.55 269.836 1251.59 260.199C1265.19 249.324 1280.43 241.268 1296.91 236.253C1307.61 232.998 1318.64 230.74 1330.62 229.351C1346.77 227.481 1364.69 227.544 1383.88 229.538C1400.68 231.284 1419.06 234.577 1438.49 239.326C1470.85 247.234 1502.15 259.57 1528.99 274.999C1558.98 292.19 1585.13 313.559 1606.7 338.515C1626.19 361.061 1641.39 385.794 1651.87 412.026L1650.93 412.176C1628.73 356.592 1585.2 308.035 1528.35 275.452C1501.59 260.073 1470.4 247.778 1438.15 239.896C1396.34 229.681 1361.23 226.426 1330.8 229.953C1318.9 231.331 1307.95 233.573 1297.32 236.804C1258.12 248.735 1234.24 275.089 1221.11 295.099C1213.07 307.256 1207.18 319.95 1201.49 332.226C1200.04 335.369 1198.53 338.62 1197.03 341.767C1192.98 350.24 1189.7 360.578 1186.22 371.524C1182.05 384.647 1177.32 399.52 1170.46 413.464C1162.6 429.44 1153.05 441.93 1141.28 451.649C1134.48 457.269 1126.66 462.051 1118.04 465.865C1108.76 469.966 1098.22 473.1 1086.71 475.178C1073.54 477.557 1060.32 478.504 1047.32 478.504Z" fill="#FFE492"/>
<path d="M1064.5 481.589C1054.89 481.589 1044.83 480.996 1034.19 479.813C1013.25 477.483 993.209 473.254 975.523 469.526C953.231 464.825 929.956 458.977 906.347 452.146C887.455 446.649 868.947 440.643 851.343 434.291C800.815 416.082 757.284 391.87 709.661 364.411C705.429 361.971 701.131 359.482 696.976 357.073C680.612 347.593 663.692 337.79 646.454 328.528C605.72 306.688 561.644 292.854 515.45 287.409C457.181 280.54 394.07 286.466 327.879 305.025C293.913 314.549 260.555 326.555 231.412 339.748C209.47 349.681 191.407 361.392 172.283 373.792C170.341 375.052 168.389 376.316 166.427 377.585C161.544 380.746 156.284 384.14 150.934 387.537C139.714 394.685 126.04 402.83 109.703 409.023C91.4147 415.957 72.632 419.451 52.2857 419.704C15.039 420.169 -22.8754 412.347 -59.5421 404.782L-60.9381 404.495C-78.8909 400.793 -97.8825 397.052 -115.124 394.781C-167.677 387.86 -222.447 383.054 -269.342 381.25L-269.279 380.598C-222.335 382.404 -167.514 387.213 -114.915 394.141C-97.6242 396.419 -78.5996 400.165 -60.6194 403.872L-59.2234 404.16C-22.6363 411.707 15.2012 419.511 52.2664 419.049C95.0723 418.515 124.635 403.365 150.206 387.072C155.556 383.676 160.81 380.283 165.694 377.123C167.656 375.856 169.607 374.59 171.55 373.332C190.706 360.911 208.802 349.179 230.816 339.213C260.014 325.994 293.435 313.965 327.464 304.424C358.519 295.718 389.08 289.718 418.291 286.595C451.669 283.027 484.422 283.083 515.643 286.762C562.013 292.228 606.25 306.111 647.121 328.026C664.374 337.297 681.301 347.103 697.674 356.589C701.829 358.996 706.127 361.485 710.359 363.925C757.935 391.358 801.42 415.544 851.857 433.721C869.436 440.062 887.917 446.06 906.782 451.55C930.357 458.371 953.594 464.21 975.853 468.904C1010.74 476.263 1054.17 485.418 1096.99 478.403C1119.83 474.661 1137.63 466.99 1151.41 454.949C1177.38 432.264 1184.9 398.072 1190.94 370.597C1193.29 359.895 1195.51 349.787 1198.52 341.56C1199.47 338.967 1200.43 336.295 1201.36 333.71C1206.17 320.282 1211.14 306.395 1218.6 292.967C1230.13 272.071 1252.02 244.117 1290.86 229.61C1301.58 225.604 1312.65 222.655 1324.69 220.595C1356.18 215.127 1393.68 216.896 1436.13 225.85C1469.7 232.932 1501.98 244.779 1529.47 260.112C1560.22 277.221 1586.57 298.796 1607.78 324.242C1617.52 335.913 1626.11 348.379 1633.35 361.293C1640.26 373.628 1645.95 386.437 1650.29 399.365L1649.28 399.501C1630.19 342.536 1587.4 293.208 1528.79 260.602C1501.4 245.326 1469.25 233.524 1435.8 226.469C1393.55 217.555 1356.25 215.791 1324.96 221.224C1313.01 223.269 1302.03 226.195 1291.38 230.171C1252.8 244.577 1231.04 272.388 1219.58 293.182C1212.13 306.575 1207.17 320.442 1202.36 333.853C1201.44 336.438 1200.48 339.111 1199.53 341.707C1196.53 349.906 1194.31 360 1191.96 370.686C1188.92 384.511 1185.48 400.181 1179.59 414.97C1172.83 431.964 1163.88 445.168 1152.25 455.333C1145.61 461.132 1137.84 466.022 1129.17 469.867C1119.82 474.011 1109.08 477.096 1097.24 479.034C1086.85 480.739 1076 481.589 1064.5 481.589Z" fill="#FFE492"/>
<path d="M1080.33 484.85C1068.81 484.85 1056.67 483.904 1043.7 482.005C1022.68 478.932 1002.46 473.832 984.622 469.332C962.162 463.667 938.9 456.871 915.482 449.131C896.713 442.9 878.328 436.175 860.84 429.142C812.717 409.804 771.442 384.879 727.742 358.493C725.58 357.188 723.417 355.881 721.249 354.573C700.927 342.317 679.916 329.642 658.012 317.929C616.569 295.812 571.158 282.823 523.04 279.323C462.6 274.925 397.392 284.967 329.225 309.165C295.128 321.268 260.901 336.525 232.849 352.123C211.668 363.9 194.679 377.152 176.694 391.183C174.564 392.844 172.429 394.511 170.277 396.18C165.979 399.522 160.865 403.484 155.512 407.536C145.597 415.06 132.088 424.623 115.473 431.816C97.4766 439.609 78.6526 443.581 57.9243 443.956C40.8867 444.226 22.0847 442.558 0.441315 438.854C-18.1408 435.675 -36.1155 431.52 -56.0057 426.813C-74.1618 422.465 -93.3237 417.973 -110.515 415.006C-161.439 406.218 -215.229 398.523 -270.387 392.13L-270.189 391.445C-214.998 397.84 -161.178 405.542 -110.227 414.334C-92.9885 417.309 -73.7991 421.808 -55.621 426.16C-22.282 434.05 19.2103 443.874 57.8941 443.259C102.121 442.457 130.543 425.4 154.668 407.086C160.019 403.037 165.13 399.077 169.425 395.738C171.577 394.068 173.712 392.402 175.839 390.742C193.855 376.688 210.874 363.414 232.124 351.598C260.233 335.969 294.526 320.683 328.689 308.557C397.063 284.285 462.496 274.218 523.166 278.631C546.428 280.324 569.278 284.254 591.075 290.313C614.464 296.812 637.223 305.926 658.721 317.397C680.65 329.122 701.675 341.804 722.007 354.07C724.176 355.379 726.341 356.684 728.504 357.99C772.161 384.352 813.401 409.253 861.431 428.555C878.894 435.577 897.251 442.293 915.993 448.514C939.378 456.242 962.605 463.029 985.031 468.685C1020.28 477.575 1064.14 488.637 1107.52 482.222C1131.01 478.746 1148.93 471.028 1162.29 458.628C1188.04 434.945 1192.62 398.765 1196.3 369.696C1197.62 359.299 1198.87 349.479 1200.93 341.537C1201.36 339.899 1201.78 338.252 1202.21 336.596C1206.06 321.639 1210.05 306.172 1216.97 291.078C1226.86 269.367 1246.65 239.928 1284.8 222.972C1295.44 218.242 1306.54 214.602 1318.74 211.845C1335.7 207.977 1354.6 206.159 1374.91 206.438C1393.45 206.692 1413.25 208.692 1433.75 212.378C1468.54 218.63 1501.8 229.989 1529.94 245.227C1561.45 262.252 1588 284.036 1608.85 309.97C1618.42 321.87 1626.71 334.592 1633.48 347.783C1639.96 360.416 1645.09 373.513 1648.7 386.709L1647.61 386.827C1631.88 329.324 1588.73 277.906 1529.23 245.756C1501.2 230.585 1468.09 219.273 1433.45 213.046C1390.74 205.366 1351.2 205.178 1319.1 212.498C1307 215.235 1295.98 218.846 1285.42 223.54C1247.54 240.379 1227.87 269.667 1218.03 291.27C1211.12 306.324 1207.14 321.768 1203.29 336.706C1202.87 338.362 1202.44 340.011 1202.01 341.649C1199.96 349.56 1198.71 359.368 1197.4 369.75C1193.7 398.903 1189.1 435.187 1163.2 459.022C1156.76 464.999 1149.05 470.001 1140.31 473.887C1130.9 478.066 1119.95 481.099 1107.77 482.901C1098.97 484.198 1089.87 484.85 1080.33 484.85Z" fill="#FFE492"/>
<path d="M1095.2 488.242C1082.08 488.242 1068.18 486.897 1053.2 484.195C1032.01 480.373 1011.66 474.403 993.716 469.137C971.033 462.482 947.782 454.735 924.608 446.114C905.974 439.159 887.714 431.715 870.33 423.992C827.524 404.979 790.939 381.688 752.206 357.028C745.875 352.996 739.326 348.829 732.83 344.731C709.994 330.334 690.494 318.462 669.562 307.326C627.38 284.917 580.636 272.773 530.625 271.232C467.784 269.296 400.471 283.449 330.561 313.298C295.832 328.127 261.636 346.307 234.274 364.49C213.661 378.188 197.546 393.099 180.487 408.885C178.373 410.841 176.252 412.804 174.117 414.768C170.313 418.273 165.279 422.892 160.083 427.523C138.214 447.059 109.643 467.171 63.5557 468.2C62.1185 468.229 60.6758 468.243 59.2358 468.243C23.2478 468.243 -13.4932 459.209 -51.0806 449.122L-53.4274 448.488C-72.0452 443.447 -89.6325 438.687 -105.912 435.222C-167.261 422.164 -226.594 411.141 -271.43 402.998L-271.109 402.285C-226.261 410.431 -166.912 421.456 -105.541 434.52C-89.2175 437.993 -71.611 442.76 -52.9684 447.806L-50.6244 448.441C-11.6602 458.897 26.3915 468.224 63.5145 467.46C109.09 466.443 137.422 446.485 159.129 427.096C164.323 422.469 169.352 417.853 173.155 414.35C175.29 412.384 177.409 410.423 179.522 408.467C196.609 392.656 212.748 377.721 233.427 363.979C260.844 345.758 295.109 327.542 329.907 312.683C362.205 298.892 394.513 288.303 425.934 281.208C461.985 273.066 497.229 269.461 530.68 270.492C580.95 272.039 627.93 284.242 670.31 306.756C691.271 317.91 710.791 329.794 733.649 344.203C740.148 348.301 746.696 352.47 753.03 356.501C791.725 381.137 828.274 404.406 870.997 423.38C888.357 431.095 906.59 438.527 925.196 445.471C948.337 454.081 971.553 461.817 994.202 468.461C1029.76 478.893 1074 491.875 1118.04 486.03C1142.12 482.835 1160.15 475.072 1173.17 462.298C1198.59 437.535 1200.11 399.32 1201.34 368.613C1201.74 358.595 1202.12 349.13 1203.33 341.505L1203.36 341.33C1206.08 324.254 1208.89 306.598 1215.33 289.177C1220.92 273.981 1228.69 260.319 1238.44 248.568C1249.43 235.32 1262.98 224.471 1278.72 216.323C1289.25 210.871 1300.39 206.539 1312.78 203.083C1346.24 193.69 1387.25 192.24 1431.36 198.893C1449.12 201.57 1466.63 205.626 1483.42 210.946C1500.31 216.297 1516.12 222.821 1530.4 230.333C1562.68 247.277 1589.43 269.266 1609.92 295.692C1628.34 319.444 1641.2 346.538 1647.11 374.045L1645.95 374.144C1633.31 315.273 1590.92 263.063 1529.66 230.903C1501.01 215.84 1466.93 205.019 1431.1 199.618C1387.23 193.003 1346.48 194.438 1313.26 203.766C1300.97 207.196 1289.92 211.493 1279.47 216.901C1250.08 232.116 1228.3 257.168 1216.48 289.349C1210.05 306.725 1207.24 324.357 1204.53 341.409L1204.5 341.583C1203.29 349.181 1202.91 358.631 1202.51 368.636C1201.28 399.437 1199.74 437.767 1174.15 462.704C1167.87 468.864 1160.22 473.974 1151.42 477.892C1141.94 482.117 1130.79 485.1 1118.28 486.761C1110.84 487.747 1103.16 488.242 1095.2 488.242Z" fill="#FFE492"/>
<path d="M64.4097 492.513C48.3174 492.513 30.7932 490.524 11.0158 486.463C-8.63528 482.428 -28.0693 476.857 -46.1458 471.44C-49.4186 470.453 -52.6668 469.468 -55.893 468.491C-71.9524 463.622 -87.1214 459.024 -101.298 455.443C-157.828 441.166 -211.711 428.334 -263.822 415.927L-272.456 413.87L-272.022 413.137L-263.387 415.193C-211.274 427.603 -157.383 440.435 -100.842 454.716C-86.6268 458.306 -71.4385 462.91 -55.3598 467.785C-52.1364 468.763 -48.8883 469.747 -45.6181 470.732C-8.51166 481.852 30.9114 492.629 69.1473 491.669C116.149 490.428 144.317 467.204 163.602 447.113C168.543 441.974 173.303 436.854 176.897 432.967C178.881 430.825 180.851 428.684 182.816 426.549C199.112 408.849 214.504 392.13 234.746 376.366C261.465 355.562 295.697 334.412 331.141 316.817C364.023 300.492 397.206 287.594 429.77 278.482C467.121 268.029 503.603 262.605 538.204 262.359C590.268 261.867 638.624 273.228 681.911 296.122C705.907 308.829 727.421 322.574 745.305 334.345C755.036 340.75 764.767 347.316 774.179 353.666C807.493 376.145 841.942 399.388 880.576 418.214C897.834 426.626 915.949 434.776 934.413 442.436C957.263 451.896 980.467 460.579 1003.39 468.245C1039.21 480.226 1083.79 495.138 1128.58 489.846C1153.23 486.933 1171.38 479.125 1184.05 465.974C1209.13 440.089 1207.44 399.78 1206.08 367.392C1205.68 357.814 1205.29 348.766 1205.75 341.482C1206.78 325.061 1208.33 305.977 1213.71 287.285C1218.24 271.447 1225.09 257.118 1234.05 244.697C1244.19 230.647 1257.18 218.868 1272.67 209.686C1282.92 203.601 1294.42 198.436 1306.83 194.333C1324.55 188.459 1344.42 184.766 1365.92 183.358C1386.04 182.038 1407.26 182.732 1428.99 185.418C1447.31 187.684 1465.37 191.41 1482.66 196.496C1500.06 201.614 1516.28 207.99 1530.88 215.446C1547.7 224.032 1563.17 234.171 1576.85 245.583C1589.81 256.394 1601.3 268.452 1611 281.42C1629.14 305.681 1641.08 333.335 1645.52 361.389L1644.29 361.467C1634.75 301.224 1593.13 248.225 1530.1 216.058C1501.23 201.309 1465.24 190.701 1428.75 186.188C1383.63 180.609 1341.67 183.666 1307.41 195.029C1295.09 199.099 1283.69 204.223 1273.51 210.259C1244.34 227.56 1224.63 253.522 1214.93 287.427C1209.56 306.068 1208.01 325.119 1206.99 341.513C1206.53 348.771 1206.91 357.805 1207.31 367.371C1207.98 383.349 1208.74 401.46 1206.19 418.969C1203.23 439.285 1196.34 454.794 1185.11 466.383C1179 472.724 1171.41 477.945 1162.55 481.898C1152.99 486.168 1141.64 489.102 1128.81 490.616C1122.34 491.381 1115.87 491.728 1109.44 491.728C1070.95 491.728 1033.65 479.252 1002.81 468.937C979.859 461.259 956.619 452.563 933.739 443.09C915.248 435.419 897.108 427.257 879.826 418.833C841.112 399.968 806.627 376.701 773.28 354.201C763.871 347.853 754.143 341.289 744.417 334.887C726.558 323.13 705.074 309.404 681.122 296.722C638.069 273.95 589.995 262.655 538.223 263.14C456.917 263.718 381.149 292.981 331.904 317.43C296.532 334.991 262.369 356.095 235.707 376.858C215.526 392.575 200.156 409.267 183.885 426.939C181.92 429.075 179.947 431.215 177.963 433.359C174.366 437.247 169.604 442.372 164.66 447.515C156.564 455.95 143.855 468.227 127.021 477.43C118.845 481.9 110.145 485.412 101.162 487.871C91.1452 490.613 80.3895 492.154 69.1995 492.448C67.6139 492.492 66.0173 492.513 64.4097 492.513Z" fill="#FFE492"/>
<path d="M69.5768 516.777C53.4651 516.777 35.9768 514.635 16.3037 510.264C-4.06458 505.739 -24.2021 499.377 -41.2123 493.749C-46.439 492.016 -51.6547 490.259 -56.7001 488.56C-70.8029 483.81 -84.1253 479.322 -96.6865 475.658C-141.795 462.499 -186.61 449.651 -229.952 437.225C-244.288 433.115 -259.111 428.866 -273.477 424.739L-272.939 423.984C-258.572 428.111 -243.749 432.361 -229.413 436.471C-186.071 448.896 -141.251 461.746 -96.1396 474.907C-83.5455 478.581 -70.2066 483.073 -56.0873 487.83C-51.0447 489.529 -45.8289 491.284 -40.6077 493.017C-5.32867 504.684 35.592 517.035 74.776 515.873C122.886 514.412 149.907 489.053 168.077 467.125C172.735 461.507 177.239 455.867 180.641 451.581C182.388 449.381 184.125 447.183 185.859 444.99C201.446 425.268 216.167 406.641 236.068 388.753C261.952 365.487 296.156 341.408 332.375 320.95C382.815 292.583 460.773 257.981 545.726 254.228C599.752 251.778 649.477 262.295 693.514 285.491C713.3 295.917 732.866 307.944 756.96 324.49C769.137 332.851 781.22 341.518 792.904 349.896C823.306 371.696 854.738 394.238 890.157 413.054C907.315 422.171 925.307 431.038 943.63 439.408C965.818 449.533 989.014 459.164 1012.57 468.036C1048.75 481.581 1093.78 498.441 1139.11 493.669C1163.97 491.107 1182.75 483.028 1194.94 469.659C1219.67 442.603 1214.36 398.337 1210.48 366.017C1209.4 356.947 1208.37 348.38 1208.17 341.469C1207.72 326.109 1207.76 305.858 1212.09 285.404C1219.57 249.96 1237.91 222.253 1266.61 203.058C1276.67 196.295 1288.2 190.419 1300.89 185.593C1318.94 178.718 1339.31 174.094 1361.43 171.851C1382.26 169.738 1404.19 169.772 1426.61 171.95C1445.52 173.829 1464.12 177.235 1481.89 182.07C1499.83 186.954 1516.47 193.176 1531.35 200.565C1548.55 209.102 1564.26 219.276 1578.05 230.806C1591.12 241.733 1602.56 253.962 1612.08 267.156C1629.94 291.928 1640.96 320.14 1643.94 348.742L1642.64 348.796C1636.22 287.178 1595.36 233.387 1530.55 201.219C1501.16 186.625 1464.18 176.52 1426.41 172.77C1379.86 168.246 1336.69 172.926 1301.57 186.304C1288.98 191.09 1277.54 196.919 1267.56 203.627C1239.06 222.696 1220.83 250.246 1213.39 285.515C1209.06 305.913 1209.03 326.125 1209.48 341.455C1209.68 348.341 1210.7 356.898 1211.79 365.956C1213.79 382.663 1216.06 401.6 1214.77 420.088C1213.25 441.616 1207.14 457.967 1196.07 470.076C1190.11 476.607 1182.58 481.94 1173.68 485.928C1164.04 490.253 1152.48 493.132 1139.33 494.488C1118.94 496.634 1096.99 494.706 1072.24 488.593C1050.72 483.279 1030.1 475.561 1011.91 468.753C988.318 459.869 965.092 450.223 942.872 440.084C924.521 431.702 906.505 422.823 889.321 413.693C853.828 394.839 822.36 372.273 791.929 350.45C780.25 342.074 768.169 333.413 756.004 325.058C731.951 308.542 712.42 296.538 692.681 286.136C648.905 263.072 599.496 252.618 545.814 255.053C461.227 258.792 383.527 293.287 333.238 321.569C297.091 341.985 262.957 366.014 237.129 389.23C217.283 407.068 202.584 425.669 187.022 445.362C185.288 447.556 183.551 449.754 181.803 451.954C178.398 456.243 173.892 461.889 169.228 467.512C150.899 489.635 123.606 515.221 74.8337 516.701C73.0997 516.751 71.3438 516.777 69.5768 516.777Z" fill="#FFE492"/>
<path d="M74.8472 541.045C30.8239 541.045 -15.3675 523.896 -56.3157 508.692C-68.8988 504.02 -80.784 499.607 -92.0784 495.875L-274.5 435.608L-273.865 434.836L-91.4436 495.103C-80.119 498.844 -68.2201 503.262 -55.6204 507.94C-13.0894 523.732 35.1191 541.631 80.4037 540.079C129.574 538.397 155.477 510.903 172.55 487.141C178.134 479.369 183.526 471.461 188.741 463.813C203.006 442.897 217.755 421.268 237.384 401.138C252.971 385.155 272.333 368.393 293.378 352.666C316.464 335.412 341.182 319.582 366.84 305.617C395.131 290.221 423.898 277.485 452.337 267.764C483.793 257.014 514.783 249.994 544.45 246.901C603.882 240.704 657.935 250.108 705.105 274.853C744.305 295.415 777.622 320.842 809.843 345.432C837.889 366.836 866.889 388.967 899.728 407.885C937.659 429.736 978.711 449.9 1021.75 467.817C1058.01 482.913 1103.14 501.702 1149.65 497.479C1188.93 493.913 1211.64 477.243 1219.07 446.514C1225.4 420.376 1219.38 389.37 1214.55 364.457C1212.9 355.967 1211.34 347.947 1210.58 341.444C1206.37 305.594 1209.05 276 1218.79 250.972C1224.87 235.357 1233.84 221.437 1245.45 209.601C1258.42 196.378 1275.07 185.355 1294.94 176.839C1312.13 169.472 1331.5 164.121 1352.52 160.934C1372.53 157.902 1393.59 156.885 1415.13 157.914C1457.49 159.936 1498.93 169.794 1531.81 185.671C1549.38 194.158 1565.34 204.368 1579.24 216.017C1592.4 227.057 1603.81 239.458 1613.15 252.879C1630.72 278.161 1640.82 306.933 1642.34 336.081L1640.97 336.111C1637.73 274.039 1596.61 218.059 1530.97 186.366C1461.27 152.709 1362.33 149.005 1295.7 177.563C1229.71 205.851 1202.31 259.436 1211.95 341.38C1212.71 347.862 1214.26 355.871 1215.91 364.351C1220.75 389.317 1226.79 420.39 1220.43 446.646C1216.97 460.947 1210.01 472.441 1199.75 480.809C1193.98 485.513 1187.02 489.358 1179.07 492.234C1170.61 495.295 1160.78 497.35 1149.84 498.343C1145.37 498.749 1140.82 498.953 1136.19 498.953C1119.34 498.953 1101.39 496.25 1081.72 490.774C1059.56 484.603 1038.17 475.7 1020.99 468.547C977.895 450.604 936.785 430.414 898.799 408.532C865.886 389.574 836.856 367.417 808.779 345.99C776.6 321.431 743.324 296.036 704.223 275.526C657.369 250.95 603.687 241.607 544.665 247.762C425.274 260.21 302.29 336.233 238.544 401.598C218.967 421.672 204.238 443.272 189.992 464.16C184.773 471.811 179.379 479.725 173.79 487.504C162.454 503.28 151.259 514.576 138.557 523.05C130.629 528.339 122.028 532.508 112.992 535.441C102.946 538.702 92.0031 540.557 80.4669 540.953C78.6037 541.014 76.7268 541.045 74.8472 541.045Z" fill="#FFE492"/>
</g>
</svg>
